<svg height="512" viewBox="0 0 64 64" width="512" xmlns="http://www.w3.org/2000/svg"><g id="Layer_60" data-name="Layer 60"><path d="m49.33 38.67a2 2 0 0 0 -2 2v15.33h-39.33v-39.33h12.08a2 2 0 0 0 0-4h-14.08a2 2 0 0 0 -2 2v43.33a2 2 0 0 0 2 2h43.33a2 2 0 0 0 2-2v-17.33a2 2 0 0 0 -2-2z"/><path d="m59.33 18.2-15.33-13.69a2 2 0 0 0 -3.31 1.49v5.86c-13.43.52-23.69 16.26-21.51 31.45a2 2 0 0 0 1 1.51 2 2 0 0 0 2.63-.68c2.62-9.48 9.54-16.44 17.85-16.56v5.8a2 2 0 0 0 3.34 1.49l15.33-13.69a2 2 0 0 0 0-2.98zm-14.64 10.71v-3.28s0-.07 0-.11a2 2 0 0 0 -1.69-1.86c-7.62-.78-14.76 3-19.4 9.56 2.25-10.55 10.13-17.9 19.5-17.42a2 2 0 0 0 1.59-1.88.22.22 0 0 1 0-.08v-3.37l10.31 9.22z"/></g></svg>