<?xml version="1.0" encoding="utf-8"?>
<!-- Generator: Adobe Illustrator 23.0.1, SVG Export Plug-In . SVG Version: 6.00 Build 0)  -->
<svg version="1.1" id="Layer_1" xmlns="http://www.w3.org/2000/svg" xmlns:xlink="http://www.w3.org/1999/xlink" x="0px" y="0px"
	 viewBox="0 0 512 512" style="enable-background:new 0 0 512 512;" xml:space="preserve">
<style type="text/css">
	.st0{fill:#9BC9FF;}
	.st1{fill:#57A4FF;}
</style>
<g id="Reception">
	<g>
		<circle class="st0" cx="432" cy="40" r="16"/>
		<path class="st0" d="M408,136h-32c-17.7,0-32,14.3-32,32v48h96v-48C440,150.3,425.7,136,408,136z"/>
		<path class="st0" d="M432,80c0-22.1-17.9-40-40-40s-40,17.9-40,40l24-8L432,80z"/>
		<path class="st0" d="M112,296h288v48H112V296z"/>
		<path class="st0" d="M296,152c0-17.7-14.3-32-32-32h-32c-17.7,0-32,14.3-32,32v64h96V152z"/>
		<path class="st0" d="M288,64c0-22.1-17.9-40-40-40s-40,17.9-40,40l24-8L288,64z"/>
		<path class="st0" d="M80,104h32v48h56V56H24v96h56V104z"/>
		<path class="st0" d="M128,184h-16H80H64v32h64V184z"/>
	</g>
	<path class="st1" d="M488,208h-40v-40c0-15.8-9.4-30.1-23.8-36.5c10.1-9.1,15.8-22,15.8-35.5V80c0-5.6-1-11.3-3-16.5
		c13-2.7,21.2-15.5,18.5-28.5C452.8,22,440,13.8,427,16.5c-9.3,2-16.5,9.2-18.5,18.5c-24.8-9.2-52.3,3.4-61.5,28.2
		c-2,5.4-3,11.1-3,16.8v16c0,13.5,5.7,26.4,15.8,35.5c-14.4,6.4-23.8,20.7-23.8,36.5v40h-32v-56c0-15.8-9.4-30.1-23.8-36.5
		c10.1-9.1,15.8-22,15.8-35.5V64c0-26.5-21.5-48-48-48s-48,21.5-48,48v16c0,13.5,5.7,26.4,15.8,35.5c-14.4,6.4-23.8,20.7-23.8,36.5
		v56h-56v-24c0-4.4-3.6-8-8-8h-8v-16h48c4.4,0,8-3.6,8-8V56c0-4.4-3.6-8-8-8H24c-4.4,0-8,3.6-8,8v96c0,4.4,3.6,8,8,8h48v16h-8
		c-4.4,0-8,3.6-8,8v24H24c-4.4,0-8,3.6-8,8v32c0,4.4,3.6,8,8,8h8v232c0,4.4,3.6,8,8,8h432c4.4,0,8-3.6,8-8V256h8c4.4,0,8-3.6,8-8
		v-32C496,211.6,492.4,208,488,208z M360,85.8l16.7-5.6l47.3,6.8V96c0,17.7-14.3,32-32,32s-32-14.3-32-32V85.8z M432,32
		c4.4,0,8,3.6,8,8s-3.6,8-8,8s-8-3.6-8-8S427.6,32,432,32z M392,48c14,0.1,26.3,9.2,30.4,22.6l-45.3-6.5c-1.2-0.2-2.5-0.1-3.7,0.3
		l-11.1,3.7C367.2,56,378.9,48,392,48z M352,168c0-13.3,10.7-24,24-24h8v16h-8v16h32v-16h-8v-16h8c13.3,0,24,10.7,24,24v40h-80V168z
		 M216,69.8l16.7-5.6l47.3,6.8V80c0,17.7-14.3,32-32,32s-32-14.3-32-32V69.8z M248,32c14,0.1,26.3,9.2,30.4,22.6l-45.3-6.5
		c-1.2-0.2-2.5-0.1-3.7,0.3l-11.1,3.7C223.2,40,234.9,32,248,32L248,32z M208,152c0-13.3,10.7-24,24-24h8v56h16v-56h8
		c13.3,0,24,10.7,24,24v56h-80V152z M32,144V64h128v80h-40v-40c0-4.4-3.6-8-8-8H80c-4.4,0-8,3.6-8,8v40H32z M88,112h16v64H88V112z
		 M72,192h48v16H72V192z M464,480H48V256h416V480z M480,240H32v-16h448V240z"/>
	<path class="st1" d="M112,352h288c4.4,0,8-3.6,8-8v-48c0-4.4-3.6-8-8-8H112c-4.4,0-8,3.6-8,8v48C104,348.4,107.6,352,112,352z
		 M120,304h272v32H120V304z"/>
	<path class="st1" d="M104,384h304v16H104V384z"/>
	<path class="st1" d="M104,432h304v16H104V432z"/>
</g>
</svg>
