<?xml version="1.0" encoding="utf-8"?>
<!-- Generator: Adobe Illustrator 25.1.0, SVG Export Plug-In . SVG Version: 6.00 Build 0)  -->
<svg version="1.1" id="Layer_2_1_" xmlns="http://www.w3.org/2000/svg" xmlns:xlink="http://www.w3.org/1999/xlink" x="0px" y="0px"
	 viewBox="0 0 114 54.7" style="enable-background:new 0 0 114 54.7;" xml:space="preserve">
<style type="text/css">
	.st0{clip-path:url(#SVGID_2_);fill:none;stroke:#20221D;stroke-width:1.8;}
	.st1{clip-path:url(#SVGID_4_);fill:#20221D;}
	.st2{clip-path:url(#SVGID_6_);fill:#20221D;}
	.st3{clip-path:url(#SVGID_8_);fill:#20221D;}
	.st4{clip-path:url(#SVGID_10_);fill:#20221D;}
	.st5{clip-path:url(#SVGID_12_);fill:#20221D;}
	.st6{clip-path:url(#SVGID_14_);fill:#20221D;}
	.st7{clip-path:url(#SVGID_16_);fill:#20221D;}
	.st8{clip-path:url(#SVGID_18_);fill:#20221D;}
	.st9{clip-path:url(#SVGID_20_);fill:#20221D;}
	.st10{clip-path:url(#SVGID_22_);fill:#20221D;}
	.st11{clip-path:url(#SVGID_24_);fill:#20221D;}
	.st12{clip-path:url(#SVGID_26_);fill:#20221D;}
	.st13{clip-path:url(#SVGID_28_);fill:#20221D;}
	.st14{clip-path:url(#SVGID_30_);fill:#20221D;}
	.st15{clip-path:url(#SVGID_32_);fill:#20221D;}
	.st16{clip-path:url(#SVGID_34_);fill:#20221D;}
	.st17{clip-path:url(#SVGID_36_);fill:#20221D;}
	.st18{clip-path:url(#SVGID_38_);fill:#20221D;}
	.st19{clip-path:url(#SVGID_40_);fill:#20221D;}
	.st20{clip-path:url(#SVGID_42_);fill:#20221D;}
	.st21{clip-path:url(#SVGID_44_);fill:#20221D;}
	.st22{clip-path:url(#SVGID_46_);fill:#20221D;}
	.st23{clip-path:url(#SVGID_48_);fill:#20221D;}
	.st24{clip-path:url(#SVGID_50_);fill:#20221D;}
	.st25{clip-path:url(#SVGID_52_);fill:#20221D;}
	.st26{clip-path:url(#SVGID_54_);fill:#20221D;}
	.st27{clip-path:url(#SVGID_56_);fill:#20221D;}
	.st28{clip-path:url(#SVGID_58_);fill:#20221D;}
	.st29{clip-path:url(#SVGID_60_);fill:#20221D;}
	.st30{clip-path:url(#SVGID_62_);fill:#20221D;}
</style>
<g>
	<g>
		<defs>
			<rect id="SVGID_1_" width="114" height="54.7"/>
		</defs>
		<clipPath id="SVGID_2_">
			<use xlink:href="#SVGID_1_"  style="overflow:visible;"/>
		</clipPath>
		<path class="st0" d="M4.1,0.9c0,0-3.2,0-3.2,3.2v46.4c0,0,0,3.2,3.2,3.2h105.7c0,0,3.2,0,3.2-3.2V4.1c0,0,0-3.2-3.2-3.2
			C109.9,0.9,4.1,0.9,4.1,0.9z"/>
	</g>
	<g>
		<defs>
			<rect id="SVGID_3_" width="114" height="54.7"/>
		</defs>
		<clipPath id="SVGID_4_">
			<use xlink:href="#SVGID_3_"  style="overflow:visible;"/>
		</clipPath>
		<path class="st1" d="M28,39.5c0,0-0.6,0-0.6,0.6v5.6c0,0,0,0.6,0.6,0.6h57.7c0,0,0.6,0,0.6-0.6v-5.6c0,0,0-0.6-0.6-0.6
			C85.7,39.5,28,39.5,28,39.5z"/>
	</g>
	<g>
		<defs>
			<rect id="SVGID_5_" width="114" height="54.7"/>
		</defs>
		<clipPath id="SVGID_6_">
			<use xlink:href="#SVGID_5_"  style="overflow:visible;"/>
		</clipPath>
		<path class="st2" d="M90.5,39.5c0,0-0.6,0-0.6,0.6v5.6c0,0,0,0.6,0.6,0.6h14.8c0,0,0.6,0,0.6-0.6v-5.6c0,0,0-0.6-0.6-0.6
			C105.3,39.5,90.5,39.5,90.5,39.5z"/>
	</g>
	<g>
		<defs>
			<rect id="SVGID_7_" width="114" height="54.7"/>
		</defs>
		<clipPath id="SVGID_8_">
			<use xlink:href="#SVGID_7_"  style="overflow:visible;"/>
		</clipPath>
		<path class="st3" d="M8.6,39.5c0,0-0.6,0-0.6,0.6v5.6c0,0,0,0.6,0.6,0.6h14.9c0,0,0.6,0,0.6-0.6v-5.6c0,0,0-0.6-0.6-0.6
			C23.4,39.5,8.6,39.5,8.6,39.5z"/>
	</g>
	<g>
		<defs>
			<rect id="SVGID_9_" width="114" height="54.7"/>
		</defs>
		<clipPath id="SVGID_10_">
			<use xlink:href="#SVGID_9_"  style="overflow:visible;"/>
		</clipPath>
		<path class="st4" d="M38.6,29.1c0,0-0.6,0-0.6,0.6v5.6c0,0,0,0.6,0.6,0.6h5.6c0,0,0.6,0,0.6-0.6v-5.6c0,0,0-0.6-0.6-0.6H38.6z"/>
	</g>
	<g>
		<defs>
			<rect id="SVGID_11_" width="114" height="54.7"/>
		</defs>
		<clipPath id="SVGID_12_">
			<use xlink:href="#SVGID_11_"  style="overflow:visible;"/>
		</clipPath>
		<path class="st5" d="M28.2,29.1c0,0-0.6,0-0.6,0.6v5.6c0,0,0,0.6,0.6,0.6h5.6c0,0,0.6,0,0.6-0.6v-5.6c0,0,0-0.6-0.6-0.6H28.2z"/>
	</g>
	<g>
		<defs>
			<rect id="SVGID_13_" width="114" height="54.7"/>
		</defs>
		<clipPath id="SVGID_14_">
			<use xlink:href="#SVGID_13_"  style="overflow:visible;"/>
		</clipPath>
		<path class="st6" d="M8.6,29.1c0,0-0.6,0-0.6,0.6v5.6c0,0,0,0.6,0.6,0.6h14.9c0,0,0.6,0,0.6-0.6v-5.6c0,0,0-0.6-0.6-0.6H8.6z"/>
	</g>
	<g>
		<defs>
			<rect id="SVGID_15_" width="114" height="54.7"/>
		</defs>
		<clipPath id="SVGID_16_">
			<use xlink:href="#SVGID_15_"  style="overflow:visible;"/>
		</clipPath>
		<path class="st7" d="M48.9,29.1c0,0-0.6,0-0.6,0.6v5.6c0,0,0,0.6,0.6,0.6h5.6c0,0,0.6,0,0.6-0.6v-5.6c0,0,0-0.6-0.6-0.6H48.9z"/>
	</g>
	<g>
		<defs>
			<rect id="SVGID_17_" width="114" height="54.7"/>
		</defs>
		<clipPath id="SVGID_18_">
			<use xlink:href="#SVGID_17_"  style="overflow:visible;"/>
		</clipPath>
		<path class="st8" d="M59.3,29.1c0,0-0.6,0-0.6,0.6v5.6c0,0,0,0.6,0.6,0.6h5.6c0,0,0.6,0,0.6-0.6v-5.6c0,0,0-0.6-0.6-0.6H59.3z"/>
	</g>
	<g>
		<defs>
			<rect id="SVGID_19_" width="114" height="54.7"/>
		</defs>
		<clipPath id="SVGID_20_">
			<use xlink:href="#SVGID_19_"  style="overflow:visible;"/>
		</clipPath>
		<path class="st9" d="M69.7,29.1c0,0-0.6,0-0.6,0.6v5.6c0,0,0,0.6,0.6,0.6h5.6c0,0,0.6,0,0.6-0.6v-5.6c0,0,0-0.6-0.6-0.6H69.7z"/>
	</g>
	<g>
		<defs>
			<rect id="SVGID_21_" width="114" height="54.7"/>
		</defs>
		<clipPath id="SVGID_22_">
			<use xlink:href="#SVGID_21_"  style="overflow:visible;"/>
		</clipPath>
		<path class="st10" d="M80.1,29.1c0,0-0.6,0-0.6,0.6v5.6c0,0,0,0.6,0.6,0.6h5.6c0,0,0.6,0,0.6-0.6v-5.6c0,0,0-0.6-0.6-0.6H80.1z"/>
	</g>
	<g>
		<defs>
			<rect id="SVGID_23_" width="114" height="54.7"/>
		</defs>
		<clipPath id="SVGID_24_">
			<use xlink:href="#SVGID_23_"  style="overflow:visible;"/>
		</clipPath>
		<path class="st11" d="M90.5,29.1c0,0-0.6,0-0.6,0.6v5.6c0,0,0,0.6,0.6,0.6h15c0,0,0.6,0,0.6-0.6v-5.6c0,0,0-0.6-0.6-0.6H90.5z"/>
	</g>
	<g>
		<defs>
			<rect id="SVGID_25_" width="114" height="54.7"/>
		</defs>
		<clipPath id="SVGID_26_">
			<use xlink:href="#SVGID_25_"  style="overflow:visible;"/>
		</clipPath>
		<path class="st12" d="M33.9,18.7c0,0-0.6,0-0.6,0.6V25c0,0,0,0.6,0.6,0.6h5.6c0,0,0.6,0,0.6-0.6v-5.6c0,0,0-0.6-0.6-0.6H33.9z"/>
	</g>
	<g>
		<defs>
			<rect id="SVGID_27_" width="114" height="54.7"/>
		</defs>
		<clipPath id="SVGID_28_">
			<use xlink:href="#SVGID_27_"  style="overflow:visible;"/>
		</clipPath>
		<path class="st13" d="M23.6,18.7c0,0-0.6,0-0.6,0.6V25c0,0,0,0.6,0.6,0.6h5.6c0,0,0.6,0,0.6-0.6v-5.6c0,0,0-0.6-0.6-0.6H23.6z"/>
	</g>
	<g>
		<defs>
			<rect id="SVGID_29_" width="114" height="54.7"/>
		</defs>
		<clipPath id="SVGID_30_">
			<use xlink:href="#SVGID_29_"  style="overflow:visible;"/>
		</clipPath>
		<path class="st14" d="M8.6,18.7c0,0-0.6,0-0.6,0.6V25c0,0,0,0.6,0.6,0.6h10.2c0,0,0.6,0,0.6-0.6v-5.6c0,0,0-0.6-0.6-0.6H8.6z"/>
	</g>
	<g>
		<defs>
			<rect id="SVGID_31_" width="114" height="54.7"/>
		</defs>
		<clipPath id="SVGID_32_">
			<use xlink:href="#SVGID_31_"  style="overflow:visible;"/>
		</clipPath>
		<path class="st15" d="M44.3,18.7c0,0-0.6,0-0.6,0.6V25c0,0,0,0.6,0.6,0.6h5.6c0,0,0.6,0,0.6-0.6v-5.6c0,0,0-0.6-0.6-0.6H44.3z"/>
	</g>
	<g>
		<defs>
			<rect id="SVGID_33_" width="114" height="54.7"/>
		</defs>
		<clipPath id="SVGID_34_">
			<use xlink:href="#SVGID_33_"  style="overflow:visible;"/>
		</clipPath>
		<path class="st16" d="M54.7,18.7c0,0-0.6,0-0.6,0.6V25c0,0,0,0.6,0.6,0.6h5.6c0,0,0.6,0,0.6-0.6v-5.6c0,0,0-0.6-0.6-0.6H54.7z"/>
	</g>
	<g>
		<defs>
			<rect id="SVGID_35_" width="114" height="54.7"/>
		</defs>
		<clipPath id="SVGID_36_">
			<use xlink:href="#SVGID_35_"  style="overflow:visible;"/>
		</clipPath>
		<path class="st17" d="M65.1,18.7c0,0-0.6,0-0.6,0.6V25c0,0,0,0.6,0.6,0.6h5.6c0,0,0.6,0,0.6-0.6v-5.6c0,0,0-0.6-0.6-0.6H65.1z"/>
	</g>
	<g>
		<defs>
			<rect id="SVGID_37_" width="114" height="54.7"/>
		</defs>
		<clipPath id="SVGID_38_">
			<use xlink:href="#SVGID_37_"  style="overflow:visible;"/>
		</clipPath>
		<path class="st18" d="M75.5,18.7c0,0-0.6,0-0.6,0.6V25c0,0,0,0.6,0.6,0.6h5.6c0,0,0.6,0,0.6-0.6v-5.6c0,0,0-0.6-0.6-0.6H75.5z"/>
	</g>
	<g>
		<defs>
			<rect id="SVGID_39_" width="114" height="54.7"/>
		</defs>
		<clipPath id="SVGID_40_">
			<use xlink:href="#SVGID_39_"  style="overflow:visible;"/>
		</clipPath>
		<path class="st19" d="M85.8,18.7c0,0-0.6,0-0.6,0.6V25c0,0,0,0.6,0.6,0.6h5.6c0,0,0.6,0,0.6-0.6v-5.6c0,0,0-0.6-0.6-0.6H85.8z"/>
	</g>
	<g>
		<defs>
			<rect id="SVGID_41_" width="114" height="54.7"/>
		</defs>
		<clipPath id="SVGID_42_">
			<use xlink:href="#SVGID_41_"  style="overflow:visible;"/>
		</clipPath>
		<path class="st20" d="M96.2,18.7c0,0-0.6,0-0.6,0.6V25c0,0,0,0.6,0.6,0.6h9.2c0,0,0.6,0,0.6-0.6v-5.6c0,0,0-0.6-0.6-0.6H96.2z"/>
	</g>
	<g>
		<defs>
			<rect id="SVGID_43_" width="114" height="54.7"/>
		</defs>
		<clipPath id="SVGID_44_">
			<use xlink:href="#SVGID_43_"  style="overflow:visible;"/>
		</clipPath>
		<path class="st21" d="M59.1,8.3c0,0-0.6,0-0.6,0.6v5.6c0,0,0,0.6,0.6,0.6h5.6c0,0,0.6,0,0.6-0.6V9c0,0,0-0.6-0.6-0.6
			C64.7,8.3,59.1,8.3,59.1,8.3z"/>
	</g>
	<g>
		<defs>
			<rect id="SVGID_45_" width="114" height="54.7"/>
		</defs>
		<clipPath id="SVGID_46_">
			<use xlink:href="#SVGID_45_"  style="overflow:visible;"/>
		</clipPath>
		<path class="st22" d="M49,8.3c0,0-0.6,0-0.6,0.6v5.6c0,0,0,0.6,0.6,0.6h5.6c0,0,0.6,0,0.6-0.6V9c0,0,0-0.6-0.6-0.6
			C54.6,8.3,49,8.3,49,8.3z"/>
	</g>
	<g>
		<defs>
			<rect id="SVGID_47_" width="114" height="54.7"/>
		</defs>
		<clipPath id="SVGID_48_">
			<use xlink:href="#SVGID_47_"  style="overflow:visible;"/>
		</clipPath>
		<path class="st23" d="M38.9,8.3c0,0-0.6,0-0.6,0.6v5.6c0,0,0,0.6,0.6,0.6h5.6c0,0,0.6,0,0.6-0.6V9c0,0,0-0.6-0.6-0.6
			C44.5,8.3,38.9,8.3,38.9,8.3z"/>
	</g>
	<g>
		<defs>
			<rect id="SVGID_49_" width="114" height="54.7"/>
		</defs>
		<clipPath id="SVGID_50_">
			<use xlink:href="#SVGID_49_"  style="overflow:visible;"/>
		</clipPath>
		<path class="st24" d="M28.8,8.3c0,0-0.6,0-0.6,0.6v5.6c0,0,0,0.6,0.6,0.6h5.6c0,0,0.6,0,0.6-0.6V9c0,0,0-0.6-0.6-0.6
			C34.4,8.3,28.8,8.3,28.8,8.3z"/>
	</g>
	<g>
		<defs>
			<rect id="SVGID_51_" width="114" height="54.7"/>
		</defs>
		<clipPath id="SVGID_52_">
			<use xlink:href="#SVGID_51_"  style="overflow:visible;"/>
		</clipPath>
		<path class="st25" d="M18.7,8.3c0,0-0.6,0-0.6,0.6v5.6c0,0,0,0.6,0.6,0.6h5.6c0,0,0.6,0,0.6-0.6V9c0,0,0-0.6-0.6-0.6
			C24.3,8.3,18.7,8.3,18.7,8.3z"/>
	</g>
	<g>
		<defs>
			<rect id="SVGID_53_" width="114" height="54.7"/>
		</defs>
		<clipPath id="SVGID_54_">
			<use xlink:href="#SVGID_53_"  style="overflow:visible;"/>
		</clipPath>
		<path class="st26" d="M8.6,8.3c0,0-0.6,0-0.6,0.6v5.6c0,0,0,0.6,0.6,0.6h5.6c0,0,0.6,0,0.6-0.6V9c0,0,0-0.6-0.6-0.6
			C14.2,8.3,8.6,8.3,8.6,8.3z"/>
	</g>
	<g>
		<defs>
			<rect id="SVGID_55_" width="114" height="54.7"/>
		</defs>
		<clipPath id="SVGID_56_">
			<use xlink:href="#SVGID_55_"  style="overflow:visible;"/>
		</clipPath>
		<path class="st27" d="M69.2,8.3c0,0-0.6,0-0.6,0.6v5.6c0,0,0,0.6,0.6,0.6h5.6c0,0,0.6,0,0.6-0.6V9c0,0,0-0.6-0.6-0.6
			C74.8,8.3,69.2,8.3,69.2,8.3z"/>
	</g>
	<g>
		<defs>
			<rect id="SVGID_57_" width="114" height="54.7"/>
		</defs>
		<clipPath id="SVGID_58_">
			<use xlink:href="#SVGID_57_"  style="overflow:visible;"/>
		</clipPath>
		<path class="st28" d="M79.3,8.3c0,0-0.6,0-0.6,0.6v5.6c0,0,0,0.6,0.6,0.6h5.6c0,0,0.6,0,0.6-0.6V9c0,0,0-0.6-0.6-0.6
			C84.9,8.3,79.3,8.3,79.3,8.3z"/>
	</g>
	<g>
		<defs>
			<rect id="SVGID_59_" width="114" height="54.7"/>
		</defs>
		<clipPath id="SVGID_60_">
			<use xlink:href="#SVGID_59_"  style="overflow:visible;"/>
		</clipPath>
		<path class="st29" d="M89.4,8.3c0,0-0.6,0-0.6,0.6v5.6c0,0,0,0.6,0.6,0.6H95c0,0,0.6,0,0.6-0.6V9c0,0,0-0.6-0.6-0.6
			C95,8.3,89.4,8.3,89.4,8.3z"/>
	</g>
	<g>
		<defs>
			<rect id="SVGID_61_" width="114" height="54.7"/>
		</defs>
		<clipPath id="SVGID_62_">
			<use xlink:href="#SVGID_61_"  style="overflow:visible;"/>
		</clipPath>
		<path class="st30" d="M99.5,8.3c0,0-0.6,0-0.6,0.6v5.6c0,0,0,0.6,0.6,0.6h5.6c0,0,0.6,0,0.6-0.6V9c0,0,0-0.6-0.6-0.6
			C105.1,8.3,99.5,8.3,99.5,8.3z"/>
	</g>
</g>
</svg>
