<?xml version="1.0"?>
<svg xmlns="http://www.w3.org/2000/svg" id="Layer_1" data-name="Layer 1" viewBox="0 0 512 512" width="512" height="512"><title>medical treatment</title><path d="M254.705,310.484l-7.389-20.956c-10.034,4.707-21.689,7.091-34.76,7.091-13.213,0-24.979-2.5-35.092-7.424l-10.136,20.838a6,6,0,0,1-3.539,3.082q-2.862.931-5.89,1.847c1.253,6.747,5.552,16.211,13.4,24.625a55.14,55.14,0,0,0,41.262,17.9c23.1,0,36.975-12.1,43.52-19.912a118.292,118.292,0,0,1,9.013-21.229c-2.375-.748-4.586-1.47-6.661-2.178A6,6,0,0,1,254.705,310.484Z"/><path d="M250.662,373.079a119.666,119.666,0,0,1,1-15.411,67.608,67.608,0,0,1-39.1,11.819,66.874,66.874,0,0,1-50.039-21.717c-8.222-8.82-14.116-19.721-16.19-29.435q-3.345.947-6.8,1.913C92.956,333.3,35,349.544,35,399.689v62.738C35,469.765,38.389,480,43.907,480H317.561A119.061,119.061,0,0,1,250.662,373.079Z"/><path d="M215.015,117.67c2.216.153,4.4.348,6.538.539,18.3,1.635,30.39,2.714,41.962-22.741a6,6,0,0,1,10.829-.2l.58,1.162c7.489,8.077,12.607,22.989,16.023,37.527.523-6.792.85-12.5.85-14.738,0-2.324.045-4.654.093-7.121.34-17.573.725-37.491-16.538-54.951-16.436-16.625-39.766-25.782-64.018-25.117-24.136.66-46.713,10.894-61.94,28.078q-.833.939-1.689,1.894C137.522,73.38,125.98,86.277,126.9,122.734c.055,2.215,1.352,8.757,3.086,16.24,1.975-12.037,6.017-25.018,14.113-33.7a31.64,31.64,0,0,1,24.037-10.353c8.944,0,12,8.836,14.959,17.381,4.51,13.03,9.532,27.535,30.618,28.817-10.854-12.162-8.968-16.547-8.066-18.643C206.328,120.88,208.611,117.229,215.015,117.67Z"/><path d="M277.727,220.211a5.766,5.766,0,0,1,3.3-.915l.183,0c9.9,0,21.433-14.839,25.78-33.238,1.545-6.559-.595-11.513-3.508-13.014-2.63-1.352-5.221.52-6.809,2.138a6,6,0,0,1-5.074,3.806c-.175.015-.348.023-.52.023a6,6,0,0,1-5.972-5.487c-1.156-13.435-6-47.861-15.414-64.006-14.359,23.755-32.045,22.174-49.207,20.641l-.26-.022a121.106,121.106,0,0,0,11.289,11.839,6,6,0,0,1-3.213,10.356c-41.979,6-51.1-20.362-56.549-36.112-1.122-3.239-2.786-8.048-3.972-9.3a19.756,19.756,0,0,0-14.9,6.522c-6.05,6.484-10.145,17.944-11.842,33.139a138.537,138.537,0,0,0-.663,22.192,5.968,5.968,0,0,1-.9,3.585,5.985,5.985,0,0,1-10.314,3.606c-2.64-2.781-5.468-3.665-7.762-2.428-2.665,1.442-4.83,5.977-3.284,12.528C122.468,204.458,134,219.3,143.9,219.3c.1,0,.2,0,.3,0a5.985,5.985,0,0,1,6,5.786c.4,5.792,3.593,35.447,27.513,50.548,9.437,5.966,21.16,8.99,34.844,8.99,13.72,0,25.466-2.956,34.912-8.786.033-.021.063-.043.1-.063,24.286-15.083,27.041-44.81,27.347-50.623A6,6,0,0,1,277.727,220.211Z"/><path d="M369.581,266.158A106.92,106.92,0,1,0,476.5,373.079,107.042,107.042,0,0,0,369.581,266.158ZM430,389a8.009,8.009,0,0,1-8,8H390v33a8.009,8.009,0,0,1-8,8H354a8.009,8.009,0,0,1-8-8V397H313a8.009,8.009,0,0,1-8-8V361a8.009,8.009,0,0,1,8-8h33V321a8.009,8.009,0,0,1,8-8h28a8.009,8.009,0,0,1,8,8v32h32a8.009,8.009,0,0,1,8,8Z"/><path d="M378,357V325H358v32a8.009,8.009,0,0,1-8,8H317v20h33a8.009,8.009,0,0,1,8,8v33h20V393a8.009,8.009,0,0,1,8-8h32V365H386A8.009,8.009,0,0,1,378,357Z"/></svg>
