<?xml version="1.0" encoding="iso-8859-1"?>
<!-- Generator: Adobe Illustrator 19.0.0, SVG Export Plug-In . SVG Version: 6.00 Build 0)  -->
<svg version="1.1" id="Capa_1" xmlns="http://www.w3.org/2000/svg" xmlns:xlink="http://www.w3.org/1999/xlink" x="0px" y="0px"
	 viewBox="0 0 480 480" style="enable-background:new 0 0 480 480;" xml:space="preserve">
<g>
	<g>
		<path d="M480,360V136c-0.026-22.08-17.92-39.974-40-40h-88V0h-16v184c0,4.418,3.582,8,8,8h27.12L240,270.672L108.88,192H136
			c4.418,0,8-3.582,8-8V0h-16v96H40c-22.08,0.026-39.974,17.92-40,40v224c0.026,22.08,17.92,39.974,40,40h131.056l-16,32H8
			c-4.418,0-8,3.582-8,8c0,40,42.152,40,56,40h368c13.848,0,56,0,56-40c0-4.418-3.582-8-8-8H324.944l-16-32H440
			C462.08,399.974,479.974,382.08,480,360z M128,176H80c-4.418,0.001-7.999,3.584-7.997,8.003c0.001,2.807,1.472,5.407,3.878,6.854
			l160,96c2.535,1.523,5.705,1.523,8.24,0l160-96c3.786-2.277,5.01-7.192,2.734-10.979c-1.446-2.405-4.047-3.877-6.854-3.878h-48
			v-32h80v192H48V144h80V176z M463.032,448c-2.792,9.848-12.448,16-39.032,16H56c-26.584,0-36.24-6.152-39.032-16H463.032z
			 M172.944,432l16-32h102.112l16,32H172.944z M40,384c-13.255,0-24-10.745-24-24V136c0-13.255,10.745-24,24-24h88v16H40
			c-4.418,0-8,3.582-8,8v208c0,4.418,3.582,8,8,8h400c4.418,0,8-3.582,8-8V136c0-4.418-3.582-8-8-8h-88v-16h88
			c13.255,0,24,10.745,24,24v224c0,13.255-10.745,24-24,24H40z"/>
	</g>
</g>
<g>
	<g>
		<path d="M274.904,120.368C287.385,110.548,295.064,95.854,296,80c0-52.896-30.456-64-56-64s-56,11.104-56,64
			c0.929,15.862,8.609,30.566,21.096,40.392C183.89,123.005,167.969,141.033,168,162.4V192h16v-29.6c0-14.58,11.82-26.4,26.4-26.4
			h59.2c14.58,0,26.4,11.82,26.4,26.4V192h16v-29.6C312.043,141.024,296.119,122.982,274.904,120.368z M200.416,71.528
			C202.584,44.72,215.2,32,240,32c22.704,0,35.2,10.736,38.776,33.136l-26.656-16c-3.789-2.273-8.703-1.044-10.976,2.745
			c-0.3,0.5-0.544,1.03-0.728,1.583C236.368,65.608,214.512,70.2,200.416,71.528z M240,120
			c-17.843-3.039-32.686-15.412-38.888-32.416V87.56c13.696-1.128,38.4-5.272,49.92-20.432l28.592,17.152
			C276.416,103.896,252.28,120,240,120z"/>
	</g>
</g>
<g>
	<g>
		<polygon points="400,288 400,272 384,272 384,288 368,288 368,304 384,304 384,320 400,320 400,304 416,304 416,288 		"/>
	</g>
</g>
<g>
</g>
<g>
</g>
<g>
</g>
<g>
</g>
<g>
</g>
<g>
</g>
<g>
</g>
<g>
</g>
<g>
</g>
<g>
</g>
<g>
</g>
<g>
</g>
<g>
</g>
<g>
</g>
<g>
</g>
</svg>
