<svg id="Layer_5" enable-background="new 0 0 64 64" height="512" viewBox="0 0 64 64" width="512" xmlns="http://www.w3.org/2000/svg"><g><path d="m15 45v6h4v-2h-2v-4z"/><path d="m19 37.352c2.293.547 4.351 1.712 6 3.301v-5.653h-6z"/><path d="m27 19h6v6h-6z"/><path d="m27 27h6v6h-6z"/><path d="m27 35h6v6h-6z"/><path d="m28.947 49h4.053v-6h-6.073c1.135 1.761 1.852 3.805 2.02 6z"/><path d="m7 40.62c.622-.597 1.292-1.123 2-1.578v-20.042c0-1.103.897-2 2-2h46c1.103 0 2 .897 2 2v30c0 1.103-.897 2-2 2h-28.045c-.051.679-.16 1.346-.314 2h29.359c1.654 0 3-1.346 3-3v-35h-54z"/><path d="m16.43 39.008c-3.031-.099-5.885.974-8.058 3.066-2.175 2.094-3.372 4.908-3.372 7.926v1h-2v.764l2.618 5.236h.764l2.618-5.236v-.764h-2v-1c0-2.697 1.195-5.229 3.278-6.947 1.624-1.339 3.647-2.05 5.737-2.05.591 0 1.187.057 1.779.172 3.521.684 6.347 3.509 7.03 7.03.523 2.694-.161 5.434-1.878 7.517s-4.249 3.278-6.946 3.278c-.552 0-1 .448-1 1s.448 1 1 1c3.018 0 5.832-1.197 7.926-3.372 2.092-2.173 3.181-5.035 3.066-8.058-.213-5.611-4.951-10.349-10.562-10.562z"/><path d="m11 19h6v6h-6z"/><path d="m11 27h6v6h-6z"/><path d="m19 19h6v6h-6z"/><path d="m35 27h6v6h-6z"/><path d="m19 27h6v6h-6z"/><path d="m11 38.003c1.717-.717 3.581-1.071 5.506-.994.167.006.329.03.494.043v-2.052h-6z"/><path d="m35 43h6v6h-6z"/><path d="m51 35h6v6h-6z"/><path d="m51 19h6v6h-6z"/><path d="m58 9h-23.721l-1.315-3.949c-.41-1.227-1.554-2.051-2.847-2.051h-20.117c-1.654 0-3 1.346-3 3v7h54v-1c0-1.654-1.346-3-3-3zm-44 1h-4v-4h4zm8 0h-4v-4h4zm8 0h-4v-4h4z"/><path d="m51 43h6v6h-6z"/><path d="m51 27h6v6h-6z"/><path d="m43 19h6v6h-6z"/><path d="m43 27h6v6h-6z"/><path d="m43 43h6v6h-6z"/><path d="m35 19h6v6h-6z"/><path d="m35 35h6v6h-6z"/><path d="m43 35h6v6h-6z"/></g></svg>