<?xml version="1.0" encoding="utf-8"?>
<!-- Generator: Adobe Illustrator 23.0.1, SVG Export Plug-In . SVG Version: 6.00 Build 0)  -->
<svg version="1.1" id="Capa_1" xmlns="http://www.w3.org/2000/svg" xmlns:xlink="http://www.w3.org/1999/xlink" x="0px" y="0px"
	 viewBox="0 0 512 512" style="enable-background:new 0 0 512 512;" xml:space="preserve">
<style type="text/css">
	.st0{fill:url(#SVGID_1_);}
	.st1{fill:url(#SVGID_2_);}
	.st2{fill:url(#SVGID_3_);}
</style>
<g>
	<linearGradient id="SVGID_1_" gradientUnits="userSpaceOnUse" x1="247.1573" y1="159.8157" x2="310.7477" y2="159.8157">
		<stop  offset="0" style="stop-color:#00EFD1"/>
		<stop  offset="1" style="stop-color:#00ACEA"/>
	</linearGradient>
	<path class="st0" d="M279,128c-17.5,0-31.8,14.3-31.8,31.8c0,17.5,14.3,31.8,31.8,31.8c17.5,0,31.8-14.3,31.8-31.8
		C310.7,142.3,296.5,128,279,128L279,128z M279,176.6c-9.3,0-16.8-7.5-16.8-16.8c0-9.3,7.5-16.8,16.8-16.8c9.3,0,16.8,7.5,16.8,16.8
		C295.8,169.1,288.2,176.6,279,176.6L279,176.6z"/>
	<linearGradient id="SVGID_2_" gradientUnits="userSpaceOnUse" x1="340.8628" y1="421.3813" x2="404.4532" y2="421.3813">
		<stop  offset="0" style="stop-color:#00EFD1"/>
		<stop  offset="1" style="stop-color:#00ACEA"/>
	</linearGradient>
	<path class="st1" d="M372.7,389.6c-17.5,0-31.8,14.3-31.8,31.8c0,17.5,14.3,31.8,31.8,31.8c17.5,0,31.8-14.3,31.8-31.8
		C404.5,403.9,390.2,389.6,372.7,389.6z M372.7,438.2c-9.3,0-16.8-7.5-16.8-16.8c0-9.3,7.5-16.8,16.8-16.8c9.3,0,16.8,7.5,16.8,16.8
		C389.5,430.6,381.9,438.2,372.7,438.2L372.7,438.2z"/>
</g>
<linearGradient id="SVGID_3_" gradientUnits="userSpaceOnUse" x1="22.4351" y1="256.0001" x2="489.5649" y2="256.0001">
	<stop  offset="0" style="stop-color:#00EFD1"/>
	<stop  offset="1" style="stop-color:#00ACEA"/>
</linearGradient>
<path class="st2" d="M482.1,497h-9.2v-38.1c0-11.4-9.3-20.7-20.7-20.7h-20.1c1.5-5.3,2.3-11,2.3-16.8c0-1.8-0.1-3.6-0.3-5.4
	c30-32.1,46.5-73.8,46.5-117.7c0-85.9-64.1-159.4-149.2-171c-9.7-15.5-26-26.5-45-28.8v-4.2c0-12-9.7-21.7-21.7-21.7h-7V51.2h0
	c11.1,0,20.2-9.1,20.2-20.2V7.5c0-4.1-3.4-7.5-7.5-7.5h-96.4c-4.1,0-7.5,3.4-7.5,7.5V31c0,11.1,9.1,20.2,20.2,20.2h0v21.4h-7
	c-12,0-21.7,9.7-21.7,21.7v17.9c0,4.1,3.4,7.5,7.5,7.5s7.5-3.4,7.5-7.5V94.3c0-3.7,3-6.7,6.7-6.7h85c3.7,0,6.7,3,6.7,6.7v4.2
	c-30.5,3.7-54.3,29.8-54.3,61.3s23.7,57.6,54.3,61.3v35.5h-66.4v-34.2c0-4.1-3.4-7.5-7.5-7.5s-7.5,3.4-7.5,7.5v34.2h-17V144.1
	c0-4.1-3.4-7.5-7.5-7.5s-7.5,3.4-7.5,7.5v150.4c0,8.5,5,15.9,12.1,19.5l11.1,25c2.2,5,6.7,8.5,11.9,9.6V365
	c0,8.8,7.1,15.9,15.9,15.9h26.3c8.8,0,15.9-7.1,15.9-15.9v-16.5c5.2-1.1,9.7-4.6,11.9-9.6l11.1-25c7.2-3.5,12.1-10.9,12.1-19.5
	v-73.3c21.5-2.6,39.7-16.4,48.5-35.3c51.7,12.3,88.7,58.6,88.7,112.5c0,3.3-0.1,6.7-0.4,10.1c-0.4,4.1,2.7,7.8,6.8,8.1
	c0.2,0,0.4,0,0.7,0c3.8,0,7.1-2.9,7.5-6.9c0.3-3.8,0.5-7.6,0.5-11.4c0-60.4-41.2-112.4-99-126.8c0.7-3.8,1.1-7.7,1.1-11.7
	c0-5.6-0.8-11-2.2-16.2c73.1,14.4,127.1,79.3,127.1,154.6c0,36.7-12.6,71.7-35.8,99.8c-3.6-8.9-9.2-16.7-16.3-23
	c7.1-9.7,12.8-20.3,17-31.6c1.4-3.9-0.5-8.2-4.4-9.6c-3.9-1.4-8.2,0.5-9.6,4.4c-3.7,10.1-8.9,19.6-15.3,28.3c-8.6-4.5-18.3-7-28.6-7
	c-34.1,0-61.8,27.7-61.8,61.8c0,5.8,0.8,11.4,2.3,16.8H112c-4.1,0-7.5,3.4-7.5,7.5c0,4.1,3.4,7.5,7.5,7.5h207.7
	c10.8,18,30.5,30,53,30c22.5,0,42.1-12,53-30h26.5c3.2,0,5.7,2.6,5.7,5.7V497H55.2v-38.1c0-3.2,2.6-5.7,5.7-5.7h19.1
	c4.1,0,7.5-3.4,7.5-7.5c0-4.1-3.4-7.5-7.5-7.5H60.9c-11.4,0-20.7,9.3-20.7,20.7V497H29.9c-4.1,0-7.5,3.4-7.5,7.5
	c0,4.1,3.4,7.5,7.5,7.5h452.1c4.1,0,7.5-3.4,7.5-7.5C489.6,500.4,486.2,497,482.1,497L482.1,497z M242.8,72.6h-41V51.2h41V72.6z
	 M194.3,36.2h-7.5c-2.9,0-5.2-2.3-5.2-5.2V15H263v16c0,2.9-2.3,5.2-5.2,5.2h-7.5H194.3z M236.3,365c0,0.5-0.4,0.9-0.9,0.9h-26.3
	c-0.5,0-0.9-0.4-0.9-0.9v-16.1h28V365z M249.5,332.8c-0.3,0.6-0.9,1-1.6,1h-4.2h-43h-4.2c-0.7,0-1.3-0.4-1.6-1l-7.4-16.7h69.3
	L249.5,332.8z M271.5,294.4c0,3.7-3,6.7-6.7,6.7h-85c-3.7,0-6.7-3-6.7-6.7v-22.8h98.3V294.4z M323.5,174.2c-0.2,0.4-0.3,0.7-0.4,1.1
	c-6.4,18.2-23.8,31.3-44.1,31.3c-25.8,0-46.8-21-46.8-46.8s21-46.8,46.8-46.8s46.8,21,46.8,46.8
	C325.7,164.8,324.9,169.7,323.5,174.2L323.5,174.2z M372.7,468.2c-25.8,0-46.8-21-46.8-46.8c0-25.8,21-46.8,46.8-46.8
	c25.8,0,46.8,21,46.8,46.8C419.4,447.2,398.5,468.2,372.7,468.2L372.7,468.2z"/>
</svg>
