<?xml version="1.0" encoding="iso-8859-1"?>
<!-- Generator: Adobe Illustrator 19.0.0, SVG Export Plug-In . SVG Version: 6.00 Build 0)  -->
<svg version="1.1" id="Capa_1" xmlns="http://www.w3.org/2000/svg" xmlns:xlink="http://www.w3.org/1999/xlink" x="0px" y="0px"
	 viewBox="0 0 512 512" style="enable-background:new 0 0 512 512;" xml:space="preserve">
<linearGradient id="SVGID_1_" gradientUnits="userSpaceOnUse" x1="256" y1="514" x2="256" y2="2" gradientTransform="matrix(1 0 0 -1 0 514)">
	<stop  offset="0" style="stop-color:#2AF598"/>
	<stop  offset="1" style="stop-color:#009EFD"/>
</linearGradient>
<path style="fill:url(#SVGID_1_);" d="M437.02,330.98c-27.883-27.882-61.071-48.523-97.281-61.018
	C378.521,243.251,404,198.548,404,148C404,66.393,337.607,0,256,0S108,66.393,108,148c0,50.548,25.479,95.251,64.262,121.962
	c-36.21,12.495-69.398,33.136-97.281,61.018C26.629,379.333,0,443.62,0,512h40c0-119.103,96.897-216,216-216s216,96.897,216,216h40
	C512,443.62,485.371,379.333,437.02,330.98z M148,148c0-59.552,48.449-108,108-108s108,48.448,108,108s-48.449,108-108,108
	S148,207.552,148,148z"/>
<g>
</g>
<g>
</g>
<g>
</g>
<g>
</g>
<g>
</g>
<g>
</g>
<g>
</g>
<g>
</g>
<g>
</g>
<g>
</g>
<g>
</g>
<g>
</g>
<g>
</g>
<g>
</g>
<g>
</g>
</svg>
