<?xml version="1.0" encoding="utf-8"?>
<!-- Generator: Adobe Illustrator 19.0.0, SVG Export Plug-In . SVG Version: 6.00 Build 0)  -->
<svg xmlns="http://www.w3.org/2000/svg" xmlns:xlink="http://www.w3.org/1999/xlink" version="1.1" id="Layer_1" x="0px" y="0px" viewBox="0 2 98 98" style="enable-background:new 0 2 98 98;" xml:space="preserve" width="512" height="512">
<style type="text/css">
	.st0{fill:url(#SVGID_1_);}
	.st1{fill:url(#SVGID_2_);}
	.st2{fill:url(#SVGID_3_);}
</style>
<g>
	
		<linearGradient id="SVGID_1_" gradientUnits="userSpaceOnUse" x1="49" y1="80.75" x2="49" y2="20.4254" gradientTransform="matrix(1 0 0 -1 0 104)">
		<stop offset="0" style="stop-color:#00EFD1"/>
		<stop offset="1" style="stop-color:#00ACEA"/>
	</linearGradient>
	<path class="st0" d="M93.8,50.9l-8.7-8.7c-20.6-20.5-51.6-20.5-72.1,0l-8.8,8.7c-0.6,0.6-0.9,1.3-0.9,2.1s0.3,1.6,0.9,2.1l8.7,8.7   C23.2,74.1,36.1,79.2,49,79.2s25.8-5.1,36.1-15.4l8.7-8.7C95,54,95,52.1,93.8,50.9z M80.9,59.6c-18.2,18.1-45.6,18.1-63.8,0   L10.6,53l6.7-6.6c18.1-18.1,45.5-18.1,63.7,0l6.6,6.6L80.9,59.6z"/>
	
		<linearGradient id="SVGID_2_" gradientUnits="userSpaceOnUse" x1="49" y1="80.75" x2="49" y2="20.4254" gradientTransform="matrix(1 0 0 -1 0 104)">
		<stop offset="0" style="stop-color:#00EFD1"/>
		<stop offset="1" style="stop-color:#00ACEA"/>
	</linearGradient>
	<path class="st1" d="M49,35.1c-9.9,0-17.9,8-17.9,17.9s8,17.9,17.9,17.9s17.9-8,17.9-17.9S58.9,35.1,49,35.1z M49,64.9   c-6.6,0-11.9-5.3-11.9-11.9S42.4,41.1,49,41.1S60.9,46.4,60.9,53S55.6,64.9,49,64.9z"/>
	
		<linearGradient id="SVGID_3_" gradientUnits="userSpaceOnUse" x1="49" y1="80.75" x2="49" y2="20.4254" gradientTransform="matrix(1 0 0 -1 0 104)">
		<stop offset="0" style="stop-color:#00EFD1"/>
		<stop offset="1" style="stop-color:#00ACEA"/>
	</linearGradient>
	<path class="st2" d="M49,44.8v6c1.2,0,2.2,1,2.2,2.2s-1,2.2-2.2,2.2s-2.2-1-2.2-2.2h-6c0,4.5,3.7,8.2,8.2,8.2s8.2-3.7,8.2-8.2   S53.5,44.8,49,44.8z"/>
</g>
</svg>
