<svg id="Layer_8" data-name="Layer 8" xmlns="http://www.w3.org/2000/svg" viewBox="0 0 38.21 35.49"><defs><style>.cls-1{fill:none;stroke:#444;stroke-linecap:round;stroke-linejoin:round;stroke-width:1.5px;}</style></defs><path class="cls-1" d="M10.77,17.8h0l8.09,11.61L27,17.8h0a10.06,10.06,0,0,0,2-6.07,10.2,10.2,0,0,0-14.92-9A8.8,8.8,0,0,0,9.83,7a10.38,10.38,0,0,0,.94,10.81ZM21.7,7.5a3.7,3.7,0,0,1,1.38,1.37A5.12,5.12,0,0,1,16,16a3.71,3.71,0,0,1-1.39-1.39A5.11,5.11,0,0,1,21.7,7.5ZM12.1,24.84H8.7l-4,8.94H33.3l-4-8.94H25.8"/></svg>