<svg id="Layer_7" data-name="Layer 7" xmlns="http://www.w3.org/2000/svg" viewBox="0 0 38.21 35.49"><defs><style>.cls-1{fill:none;stroke:#444;stroke-linecap:round;stroke-linejoin:round;stroke-width:1.5px;}</style></defs><path class="cls-1" d="M27.64,13.66H17.14a3.47,3.47,0,0,1-3.47-3.47h0"/><path class="cls-1" d="M13,28.76A8.66,8.66,0,0,0,18.88,31h0a8.64,8.64,0,0,0,6-2.41"/><path class="cls-1" d="M23,20.71a5.52,5.52,0,0,1-4,1.76h0a5.53,5.53,0,0,1-4.19-1.93"/><path class="cls-1" d="M13.75,24.94v1.84a2.5,2.5,0,0,1-2.5,2.5H8.54a5.2,5.2,0,0,0-5.2,5.21"/><path class="cls-1" d="M34.58,34.49a5.21,5.21,0,0,0-5.21-5.21h-2.7a2.51,2.51,0,0,1-2.51-2.5V24.94"/><path class="cls-1" d="M7.68,19.74V12.79A11.28,11.28,0,0,1,19,1.51h0A11.28,11.28,0,0,1,30.24,12.79v7"/><path class="cls-1" d="M27.64,18A8.68,8.68,0,0,1,19,26.68h0A8.68,8.68,0,0,1,10.28,18V13.66A8.68,8.68,0,0,1,19,5h0a8.68,8.68,0,0,1,8.68,8.68Z"/><path class="cls-1" d="M30.24,19.74h.43a3,3,0,0,0,3-3h0a3,3,0,0,0-3-3h-.43"/></svg>