<svg id="Layer_3" data-name="Layer 3" xmlns="http://www.w3.org/2000/svg" viewBox="0 0 38.21 35.49"><defs><style>.cls-1{fill:none;stroke:#444;stroke-linecap:round;stroke-linejoin:round;stroke-width:1.5px;}</style></defs><rect class="cls-1" x="28.28" y="1.74" width="5" height="26" rx="1.34"/><path class="cls-1" d="M33.28,12.74h1.79A2.21,2.21,0,0,1,37.28,15v.59a2.2,2.2,0,0,1-2.21,2.2H33.28"/><path class="cls-1" d="M28.27,26.42c-1.28-1.08-7.52-5.77-19-5.77V9.74c11.16,0,16.83-4.09,18.6-5.69"/><path class="cls-1" d="M9.28,9.74H6.78a5.5,5.5,0,0,0-5.5,5.5h0a5.5,5.5,0,0,0,5.5,5.5h2.5"/><path class="cls-1" d="M8.39,20.74l2.77,11.44a2,2,0,0,0,2,1.56h0a2,2,0,0,0,2-2.52L13.82,25.7C13.37,23.87,15,21.43,17,21.43"/></svg>