<svg id="Layer_9" data-name="Layer 9" xmlns="http://www.w3.org/2000/svg" viewBox="0 0 38.21 35.49"><defs><style>.cls-1{fill:none;stroke:#444;stroke-linecap:round;stroke-linejoin:round;stroke-width:1.5px;}</style></defs><path class="cls-1" d="M33.65,7.47A22.08,22.08,0,0,0,19,2.38,22.11,22.11,0,0,0,4.24,7.47c-1.11,1-1.8,4.76-.8,6.85C4.17,15.83,5,16.48,6.55,16l3.65-1.13c.89-.28,1.12-1,.93-2.19C10.72,10,11,9.12,13,8.51A19.83,19.83,0,0,1,19,7.87a19.83,19.83,0,0,1,5.92.64C27,9.12,27.2,10,26.79,12.66c-.18,1.22,0,1.91.93,2.19L31.37,16c1.53.5,2.39-.15,3.11-1.66C35.48,12.23,34.76,8.47,33.65,7.47Z"/><path class="cls-1" d="M15,15h0a2.29,2.29,0,0,1-1.45,2.12L5.42,20.3A2.31,2.31,0,0,0,4,22.45v7.64a2.3,2.3,0,0,0,2.32,2.29H31.64A2.3,2.3,0,0,0,34,30.09V22.45A2.31,2.31,0,0,0,32.5,20.3l-8.1-3.18A2.28,2.28,0,0,1,23,15h0a3.62,3.62,0,0,0-3.62-3.62h-.77A3.62,3.62,0,0,0,15,15Z"/><circle class="cls-1" cx="19.46" cy="23.88" r="4.5"/></svg>