<svg id="Layer_5" data-name="Layer 5" xmlns="http://www.w3.org/2000/svg" viewBox="0 0 38.21 35.49"><defs><style>.cls-1{stroke:#000;stroke-miterlimit:10;stroke-width:0.25px;}</style></defs><path class="cls-1" d="M16.53,33.22h-3a1.7,1.7,0,0,1-1.7-1.71V31a1,1,0,0,0-1.62-.67l-.35.35a1.7,1.7,0,0,1-2.41,0L5.4,28.61a1.7,1.7,0,0,1,0-2.41l.35-.36a.9.9,0,0,0,.2-1,.94.94,0,0,0-.87-.6h-.5a1.71,1.71,0,0,1-1.7-1.71V19.57a1.71,1.71,0,0,1,1.7-1.71h.5a1,1,0,0,0,.67-1.62l-.35-.35a1.7,1.7,0,0,1,0-2.41l2.09-2.09a1.7,1.7,0,0,1,2.41,0l.35.35a.92.92,0,0,0,1,.2.94.94,0,0,0,.6-.87v-.5a1.7,1.7,0,0,1,1.7-1.7H15.5a.52.52,0,0,1,.52.52.52.52,0,0,1-.52.53H13.57a.65.65,0,0,0-.65.65v.5a2,2,0,0,1-3.41,1.41l-.35-.35a.67.67,0,0,0-.93,0L6.14,14.22a.63.63,0,0,0-.19.47.62.62,0,0,0,.19.46l.35.35a2,2,0,0,1-1.41,3.41h-.5a.66.66,0,0,0-.66.66v2.95a.67.67,0,0,0,.66.66h.5a2,2,0,0,1,1.41,3.41l-.35.35A.62.62,0,0,0,6,27.4a.64.64,0,0,0,.19.47L8.23,30a.67.67,0,0,0,.93,0l.35-.35A2,2,0,0,1,12.92,31v.49a.65.65,0,0,0,.65.66h3a.66.66,0,0,0,.66-.66V31a2,2,0,0,1,3.4-1.41L21,30a.67.67,0,0,0,.93,0L24,27.87a.68.68,0,0,0,.19-.47.63.63,0,0,0-.2-.46l-.35-.35A2,2,0,0,1,25,23.18h.5a.67.67,0,0,0,.66-.66v-.46a.52.52,0,0,1,.52-.53.53.53,0,0,1,.53.53v.46a1.72,1.72,0,0,1-1.71,1.71H25a.95.95,0,0,0-.66,1.61l.35.36a1.7,1.7,0,0,1,0,2.41L22.62,30.7a1.7,1.7,0,0,1-1.21.5,1.72,1.72,0,0,1-1.21-.5l-.35-.35a.95.95,0,0,0-1.61.67v.49A1.71,1.71,0,0,1,16.53,33.22Z"/><path class="cls-1" d="M15.05,28.69a7.65,7.65,0,0,1,0-15.29h.44A.53.53,0,0,1,16,14a.54.54,0,0,1-.56.5h-.38A6.6,6.6,0,1,0,21.65,21a.52.52,0,0,1,.52-.52.52.52,0,0,1,.53.52A7.66,7.66,0,0,1,15.05,28.69Z"/><path class="cls-1" d="M15.05,26.4a5.36,5.36,0,0,1,0-10.72c.22,0,.43,0,.65,0a.54.54,0,0,1,.46.59.53.53,0,0,1-.59.45,4.41,4.41,0,0,0-.52,0A4.32,4.32,0,1,0,19.36,21a.52.52,0,0,1,.53-.52.52.52,0,0,1,.52.52A5.36,5.36,0,0,1,15.05,26.4Z"/><path class="cls-1" d="M27.11,20H25a1.38,1.38,0,0,1-1.38-1.39v-.36a.54.54,0,0,0-.34-.5.55.55,0,0,0-.6.11l-.25.26a1.43,1.43,0,0,1-2,0L18.9,16.62a1.4,1.4,0,0,1,0-2l.26-.26a.52.52,0,0,0,.12-.58.55.55,0,0,0-.51-.35h-.36A1.38,1.38,0,0,1,17,12.08V9.93a1.38,1.38,0,0,1,1.38-1.38h.36a.54.54,0,0,0,.5-.34.53.53,0,0,0-.11-.6l-.26-.25a1.39,1.39,0,0,1-.4-1,1.38,1.38,0,0,1,.4-1l1.53-1.53a1.39,1.39,0,0,1,2,0l.25.26a.56.56,0,0,0,.59.12.55.55,0,0,0,.35-.51V3.38A1.38,1.38,0,0,1,25,2h2.15A1.38,1.38,0,0,1,28.5,3.38v.36a.54.54,0,0,0,.33.5.54.54,0,0,0,.6-.11l.26-.26a1.39,1.39,0,0,1,2,0L33.17,5.4a1.39,1.39,0,0,1,.41,1,1.4,1.4,0,0,1-.41,1l-.26.25a.54.54,0,0,0-.11.59.55.55,0,0,0,.5.35h.36a1.38,1.38,0,0,1,1.39,1.38v2.15a1.39,1.39,0,0,1-1.39,1.39H33.3a.55.55,0,0,0-.39.93l.26.26a1.38,1.38,0,0,1,0,2l-1.52,1.52a1.43,1.43,0,0,1-2,0l-.26-.26a.52.52,0,0,0-.58-.11.53.53,0,0,0-.35.5v.36A1.39,1.39,0,0,1,27.11,20ZM23,16.68a1.62,1.62,0,0,1,.61.12,1.58,1.58,0,0,1,1,1.47v.36A.34.34,0,0,0,25,19h2.15a.34.34,0,0,0,.34-.34v-.36a1.6,1.6,0,0,1,2.72-1.13l.26.26a.36.36,0,0,0,.48,0l1.52-1.52a.37.37,0,0,0,.1-.24.35.35,0,0,0-.1-.24l-.26-.26a1.6,1.6,0,0,1,1.13-2.72h.36a.34.34,0,0,0,.34-.34V9.93a.34.34,0,0,0-.34-.34H33.3a1.6,1.6,0,0,1-1.13-2.72l.26-.26a.33.33,0,0,0,.1-.23.35.35,0,0,0-.1-.24L30.91,4.62a.33.33,0,0,0-.48,0l-.26.25a1.57,1.57,0,0,1-1.72.35,1.6,1.6,0,0,1-1-1.48V3.38A.34.34,0,0,0,27.11,3H25a.34.34,0,0,0-.33.34v.36A1.6,1.6,0,0,1,21.9,4.87l-.26-.25a.32.32,0,0,0-.47,0L19.65,6.14a.31.31,0,0,0-.1.24.29.29,0,0,0,.1.23l.25.26a1.59,1.59,0,0,1-1.13,2.72h-.36a.34.34,0,0,0-.33.34v2.15a.34.34,0,0,0,.33.34h.36a1.6,1.6,0,0,1,1.13,2.72l-.25.26a.31.31,0,0,0-.1.24.33.33,0,0,0,.1.24l1.52,1.52a.35.35,0,0,0,.47,0l.26-.26A1.59,1.59,0,0,1,23,16.68Z"/><path class="cls-1" d="M26,16.72A5.71,5.71,0,1,1,31.75,11,5.71,5.71,0,0,1,26,16.72ZM26,6.34A4.67,4.67,0,1,0,30.7,11,4.67,4.67,0,0,0,26,6.34Z"/><path class="cls-1" d="M26,14.69A3.69,3.69,0,1,1,29.72,11,3.68,3.68,0,0,1,26,14.69Zm0-6.32A2.64,2.64,0,1,0,28.67,11,2.64,2.64,0,0,0,26,8.37Z"/></svg>