<svg id="Layer_1" data-name="Layer 1" xmlns="http://www.w3.org/2000/svg" viewBox="0 0 1000 317"><defs><style>.cls-1,.cls-3{fill:#892c26;}.cls-2{fill:#fff;}.cls-3{font-size:60.84px;font-family:ACaslonPro-BoldItalic, Adobe Caslon Pro;font-weight:700;font-style:italic;letter-spacing:0.3em;}.cls-4{letter-spacing:0.31em;}.cls-5{letter-spacing:0.2em;}</style></defs><path class="cls-1" d="M139.8,258.31c1.18,1.17,1.57,2,.39,3.92-2,3.13-26.26,40.77-76.45,40.77-11.76,0-15.29-5.88-15.29-11.76,0-7.06,6.67-25.09,23.13-72.92l10.59-31c3.53-10.19,5.88-17.25,5.88-22,0-2.75-1.57-5.1-5.1-5.1-6.27,0-23.91,20-28.62,26.27-1.56,1.57-3.13,1.57-4.31.39l-3.53-3.53c-1.17-1.17-2-2.74-1.17-3.53,2-2.35,33.32-48.22,75.27-48.22,12.16,0,17.25,6.27,17.25,14.11,0,8.63-4.7,20.39-12.54,43.13l-21.17,60c-5.1,14.5-6.28,20-6.28,23.91,0,2.75,1.18,5.49,5.1,5.49,7.84,0,26.66-20.78,29-24.31a2.08,2.08,0,0,1,3.14-.39Z"/><path class="cls-1" d="M164.5,299.08c-3.14,0-4.7-2-3.53-5.1l25.49-74.1c8.23-24.3,18.42-50.18,18-56.06,0-2.75-.78-5.49-4.7-5.49-5.1,0-23.53,19.6-26.66,24.31-1.18,1.57-2.75,1.57-4.32,0l-4.31-3.92c-1.18-1.18-1.57-2.36-.78-3.53,5.88-9.41,34.11-43.52,65.47-43.52,16.86,0,22,5.88,22,15.29,0,11.76-21.18,56.07-24.31,64.3l3.92,2.74C246.83,187,277,131.67,314.27,131.67c12.94,0,24.7,9.8,24.7,19.21,0,11.76-15.29,49.79-20,62l3.53,2.74c21.17-31.76,48.62-83.9,87-83.9,16.47,0,23.91,14.51,23.91,22,0,12.94-10.58,43.13-20.38,71-7.84,22.35-14.9,39.6-14.9,45.09.39,3.13,2,5.48,4.7,5.48,9.41,0,25.88-24.7,27.84-27.83,1.18-2,2.35-2,3.14-1.57l5.49,3.92c1.56,1.18,1.56,2.35.39,5.1S411.5,303,368.37,303c-12.94,0-17.64-7.84-18-14.11-.4-7.45,6.66-29.41,21.17-67.44,12.15-32.15,15.68-43.13,15.68-50.18,0-4.31-2.35-7.45-7.06-7.45-6.27,0-33.32,32.93-58.41,70.57a130.92,130.92,0,0,0-13.33,27.84l-12.16,34.5c-.78,2-2.35,2.35-5.49,2.35H257.42c-3.53,0-5.1-1.57-3.92-5.1L277,228.9c9.8-27.05,18-51,18-57.24,0-4.31-1.18-7.84-6.67-7.84-6.66,0-33.72,31.36-56.06,65.47-5.1,7.45-11,18.43-16.47,32.54l-12.94,34.51c-.78,2.35-2.74,2.74-5.49,2.74Z"/><path class="cls-1" d="M632.23,129.71c2.74,0,3.92,2,3.14,4.7-5.88,16.86-24.7,68.62-27.84,81.55-1.57,6.67-15.29,50.58-15.29,56.46,0,3.14,1.57,4.7,4.71,4.7,6.27,0,18.81-18,21.95-22,2-2.35,2.75-2.35,3.92-1.57l4.71,3.14c1.17.78.78,2.35-.4,5.09-3.92,7.85-25.48,41.17-61.94,41.17-11.76,0-16.08-6.27-16.08-12.55,0-5.09,2-12.15,15.29-51l-3.52-2c-15.29,23.52-41.17,65.47-78,65.47-10.59,0-27.06-14.9-27.06-30.58,0-49.4,48.62-140.75,104.68-140.75,17.65,0,25.49,7.45,30.58,13.72L597.34,134c2-3.13,4.31-4.31,7-4.31ZM511.87,271.24c10.58,0,47-51.36,54.49-67.43,4.71-10.59,9-23.92,9-37.64,0-8.62-9.41-17.64-17.25-17.64-9.41,0-19.21,8.23-29.4,26.66-19.61,34.89-26.27,65.08-26.27,84.29C502.46,268.11,505.6,271.24,511.87,271.24Z"/><path class="cls-1" d="M656.54,299.08c-2.74,0-4.31-1.57-3.53-3.53L671.83,232c6.67-22,18.82-60.77,18.82-68.22,0-3.92-2.75-7.45-6.67-7.45-6.27,0-20.38,12.94-25.87,21.56-1.57,2.36-3.14,2.75-4.71,1.57l-3.92-2.74c-1.17-.79-1.17-2,0-4.71,6.28-11.37,28.62-40.38,62.73-40.38,15.29,0,20.39,8.23,20.39,15.68,0,7.06-7.45,26.27-16.86,51.75l4.31,2.36c9.81-21.57,33.33-69.79,62-69.79,11.37,0,22.35,8.63,22.35,21.17,0,13.72-10.59,25.48-17.65,25.48-5.09,0-9.41-.78-12.93-3.13-3.14-2-5.88-4.71-11-4.71-12.16,0-33.33,31-41.95,51-3.92,9.41-8.23,20.78-12.94,35.29l-12.55,39.6c-.78,2-2.74,2.74-5.09,2.74Z"/><path class="cls-1" d="M789.06,299.08c-3.14,0-4.31-3.14-3.14-5.88L872.57,64.63c4.31-10.59.39-17.25-10.19-17.25h-11c-2,0-2.75-1.18-2-3.92l2.35-7.06c1.18-2,1.57-3.14,4.71-3.14h71.74c3.92,0,3.92,4.32,2.35,7.84l-59.2,133.7,2.75,1.56c12.94-17.25,42-44.69,69-44.69,14.9,0,27.05,8.23,27.05,25.48,0,32.15-52.93,58.81-72.53,66.26v3.14l29,44.3c6.67,9.8,11,13.33,15.29,13.33,6.67,0,13.33-6.27,16.08-9,1.57-1.56,2.35-1.17,3.53,0l4.31,5.1c.78,1.18.78,2-1.18,3.92C954.9,294.38,942,303,918.44,303c-21.56,0-29.8-6.66-37.64-23.52l-16.86-39.21c-2.35-5.49-7.84-7.06-12.54-7.06l-22,63.13c-.78,2.35-2.35,2.74-5.88,2.74Zm66.65-76.45c31,6.66,70.57-33.72,70.57-56.07,0-4.7-3.13-9.8-9-9.8-10.19,0-35.67,23.53-40.77,29.8-3.53,4.31-9,9.8-11.76,14.5Z"/><polygon class="cls-2" points="545.05 249.36 517.89 265.65 534.18 189.62 588.49 243.93 561.34 243.93 577.63 281.94 555.91 292.81 545.05 249.36"/><path class="cls-1" d="M588.25,239.23,536.1,190.54a3.47,3.47,0,0,0-5.78,1.93l-12.38,70.27a3.47,3.47,0,0,0,5.43,3.43l17.17-12.23,13.53,36.5a3.48,3.48,0,0,0,4.39,2.19l17.78-5.95a3.48,3.48,0,0,0,2.19-4.39L564.9,245.8l21.08-.57a3.46,3.46,0,0,0,2.27-6ZM560,239a3.47,3.47,0,0,0-3.2,4.57l13.9,37.64L559.54,285l-13.9-37.65a3.46,3.46,0,0,0-5.3-1.72l-14.1,10L536,200l41.29,38.56Z"/><polygon class="cls-1" points="124.73 52.62 122.8 52.67 122.72 51.63 123.04 51.76 123.79 51.69 123.71 50.72 121.63 50.75 121.05 49.99 121.08 49.6 118.4 47.18 117.75 47.7 121.58 52.39 122.12 52.57 122.12 52.83 121.39 52.83 121.58 53.41 126.29 53.61 124.73 52.62"/><polygon class="cls-1" points="126.94 51.72 127.23 50.98 127.75 50.51 127.75 50.17 128.07 49.96 128.07 47.38 127.75 47.25 127.6 46.45 127.13 46.45 126.83 47.26 126.46 47.58 123.74 49.06 123.74 50.52 124.64 51.72 126.94 51.72"/><polygon class="cls-1" points="128.07 50.8 128.07 52.7 128.78 52.7 128.68 51.49 129.22 51.69 129.22 52.55 129.79 52.5 129.78 49.96 128.4 50.49 128.42 50.8 128.07 50.8"/><polygon class="cls-1" points="139.5 56.47 138.57 54.88 137.74 54.84 137.4 57.72 135.8 57.6 135.36 57.33 135.3 56.19 136.15 56.36 136.86 55.67 135.34 54.76 133.57 54.76 132.29 56.57 131.77 56.57 131.77 56 130.24 56.11 127.81 58.88 126.53 58.89 125.09 59.88 124.99 64.16 124.13 64.99 124.13 65.75 128.3 64.31 131.68 64.18 132.93 66.93 136.77 67.06 140.47 63.58 141.38 61.5 141 59.96 139.6 58.76 139.5 56.47"/><polygon class="cls-1" points="133.43 69.05 134.79 69.2 135.89 68.59 135.91 67.77 134.71 67.64 133.43 69.05"/><polygon class="cls-1" points="138.96 69.35 138.96 70 140.38 69.78 143.82 67.67 144.79 67.03 145.83 66.57 146.87 65.98 146.49 65.29 145.92 65.41 145.91 64.13 144.87 64.19 144.74 66.19 143.82 66.81 142.13 67.05 139.42 68.97 138.96 69.35"/><polygon class="cls-1" points="135.83 51.06 134.96 51.08 135.02 50.17 134.19 49.68 133 50.86 133.8 51.84 135.52 52.09 136.48 52.6 136.51 53.07 135.88 53.07 135.91 54.03 138 53.9 138.75 53.09 139.56 53.01 139.56 54.5 140.97 54.5 140.97 53.9 140.26 53.9 140.13 52.09 136.77 50.56 135.83 51.06"/><polygon class="cls-1" points="110.81 46.73 111.14 47.62 112.32 47.18 112.45 45.95 111.5 45.76 110.81 46.73"/><polygon class="cls-1" points="129.59 53.49 130 53.61 130.12 53.2 129.59 53.2 129.59 53.49"/><rect class="cls-1" x="127.13" y="53.61" width="0.63" height="0.35"/><polygon class="cls-1" points="128.44 53.61 128.07 53.96 128.07 54.27 128.65 54.2 128.65 53.96 129.04 53.96 129.04 53.66 129.32 53.61 129.32 53.31 128.7 53.31 128.44 53.61"/><polygon class="cls-1" points="129.65 53.96 129.65 54.51 130.26 54.51 130.26 54.23 130.88 54.23 130.88 53.91 131.32 53.96 131.26 53.41 130.55 53.52 130.49 53.87 129.69 53.96 129.65 53.96"/><path class="cls-1" d="M125.45,9.9a34.11,34.11,0,0,0-23.58,9.45h0q-.59.55-1.14,1.14a34.15,34.15,0,0,0-9,17.64c0,.23-.09.46-.12.68a33.4,33.4,0,0,0-.42,5.32A34.23,34.23,0,1,0,125.45,9.9ZM97.7,29.42l.33.14,0,.62-.74,0C97.46,29.9,97.58,29.66,97.7,29.42Zm-1.21,3.69.68-.58V32l-.54-.39.36-.78,1.34.9v.78l.69.51v.55l-.35.33-.82-.06-.16-.25-1.29-.09Zm29,42.43A31.47,31.47,0,0,1,94.79,50.93l1.62-1.54,3.22-4.61L99,44.49l-3.34.7-.87-.42-.73-1.39c0-.77,0-1.54.13-2.29l.82,1,.09,1.31.8.81,1.65-.11L101,41.62l1.08-.71,0-.86-1.15-.14s-4-1.9-4-2,0-1.62,0-1.62h.89l.13,1.12,1.86,1.07,2.13.1,4.61.76,1.08.68v1.05l-.14,1.44,2.37,3.89.76.18.76-1.11.42-3.15.79-1.69,1.27-.47,2.24.21,2.82,2.5v3.6L122.59,50l.2-.62-3-4.3.31-1.25,1.59,1.8.89.09,1.16-.78-.19-1.17-1.93-1.55-.08-1.41.55-.74,1,.31-.08.67.56.86.5-.36-.28-1,2.74-1,1.2-1-.18-1.82-2.39-2.5,0-2h1.06l3.28,2.5.93-.25-.62-.8L128,32.63l.11-1.59h2.08l.17-2-.79-1,.47-.51,1,1,.33-.43-1.31-1.49-3.24-.39-.43-.86.94-1.33.74.55,2.23.19,2.81-1.87.47.58-.62,1v1l2.58,2.11.82-.43L136,25.72,134.2,24l2.42-.16v-.7l1.17-.23-.9-.62,0-.48,2.46.4.47-.4-3.32-1.41-12.12-.62-1.13-.57-1.8-.27-1.35-.05-1.23,1.24-.52,0-1.63-1.21H112l-2.23-1.33-1.1.07a31.41,31.41,0,1,1,16.83,57.92Z"/><text class="cls-3" transform="translate(237.82 64.17)">GO DIG<tspan class="cls-4" x="329.85" y="0">I</tspan><tspan class="cls-5" x="372.13" y="0">T</tspan><tspan x="424.45" y="0">AL</tspan></text></svg>