<svg width="20" height="20" viewBox="0 0 20 20" fill="none" xmlns="http://www.w3.org/2000/svg">
<path d="M12.25 15.75C12.45 15.75 12.625 15.675 12.775 15.525C12.925 15.375 13 15.2 13 15C13 14.8 12.925 14.625 12.775 14.475C12.625 14.325 12.45 14.25 12.25 14.25C12.05 14.25 11.875 14.325 11.725 14.475C11.575 14.625 11.5 14.8 11.5 15C11.5 15.2 11.575 15.375 11.725 15.525C11.875 15.675 12.05 15.75 12.25 15.75ZM15 15.75C15.2 15.75 15.375 15.675 15.525 15.525C15.675 15.375 15.75 15.2 15.75 15C15.75 14.8 15.675 14.625 15.525 14.475C15.375 14.325 15.2 14.25 15 14.25C14.8 14.25 14.625 14.325 14.475 14.475C14.325 14.625 14.25 14.8 14.25 15C14.25 15.2 14.325 15.375 14.475 15.525C14.625 15.675 14.8 15.75 15 15.75ZM17.75 15.75C17.95 15.75 18.125 15.675 18.275 15.525C18.425 15.375 18.5 15.2 18.5 15C18.5 14.8 18.425 14.625 18.275 14.475C18.125 14.325 17.95 14.25 17.75 14.25C17.55 14.25 17.375 14.325 17.225 14.475C17.075 14.625 17 14.8 17 15C17 15.2 17.075 15.375 17.225 15.525C17.375 15.675 17.55 15.75 17.75 15.75ZM2 18C1.45 18 0.979 17.8043 0.587 17.413C0.195667 17.021 0 16.55 0 16V2C0 1.45 0.195667 0.979 0.587 0.587C0.979 0.195667 1.45 0 2 0H16C16.55 0 17.021 0.195667 17.413 0.587C17.8043 0.979 18 1.45 18 2V8.7C17.6833 8.55 17.3583 8.42067 17.025 8.312C16.6917 8.204 16.35 8.125 16 8.075V2H2V16H8.05C8.1 16.3667 8.17933 16.7167 8.288 17.05C8.396 17.3833 8.525 17.7 8.675 18H2ZM2 15V16V2V8.075V8V15ZM4 14H8.075C8.125 13.65 8.204 13.3083 8.312 12.975C8.42067 12.6417 8.54167 12.3167 8.675 12H4V14ZM4 10H10.1C10.6333 9.5 11.229 9.08333 11.887 8.75C12.5457 8.41667 13.25 8.19167 14 8.075V8H4V10ZM4 6H14V4H4V6ZM15 20C13.6167 20 12.4377 19.5127 11.463 18.538C10.4877 17.5627 10 16.3833 10 15C10 13.6167 10.4877 12.4373 11.463 11.462C12.4377 10.4873 13.6167 10 15 10C16.3833 10 17.5627 10.4873 18.538 11.462C19.5127 12.4373 20 13.6167 20 15C20 16.3833 19.5127 17.5627 18.538 18.538C17.5627 19.5127 16.3833 20 15 20Z" fill="#34C38F"/>
</svg>
