<svg width="26" height="26" viewBox="0 0 26 26" fill="none" xmlns="http://www.w3.org/2000/svg">
<path d="M13.0833 9.45833C15.419 9.45833 17.3125 7.56487 17.3125 5.22917C17.3125 2.89346 15.419 1 13.0833 1C10.7476 1 8.85413 2.89346 8.85413 5.22917C8.85413 7.56487 10.7476 9.45833 13.0833 9.45833Z" stroke="#50A5F1" stroke-width="2" stroke-linecap="round" stroke-linejoin="round"/>
<path d="M1 23.3542C1 18.0151 5.86898 13.6875 11.875 13.6875" stroke="#50A5F1" stroke-width="2" stroke-linecap="round" stroke-linejoin="round"/>
<path d="M19.125 24.5625C22.128 24.5625 24.5625 22.128 24.5625 19.125C24.5625 16.122 22.128 13.6875 19.125 13.6875C16.122 13.6875 13.6875 16.122 13.6875 19.125C13.6875 22.128 16.122 24.5625 19.125 24.5625Z" stroke="#50A5F1" stroke-width="2"/>
<path d="M18.5209 17.3125V19.7292H20.9375" stroke="#50A5F1" stroke-width="2" stroke-linecap="round" stroke-linejoin="round"/>
</svg>
