<svg width="22" height="22" viewBox="0 0 22 22" fill="none" xmlns="http://www.w3.org/2000/svg">
<path fill-rule="evenodd" clip-rule="evenodd" d="M17.4167 12.4538V9.16659C17.4167 6.21767 15.4138 3.7335 12.7004 2.98642C12.4318 2.30992 11.7755 1.83325 11 1.83325C10.2245 1.83325 9.56817 2.30992 9.29958 2.98642C6.58625 3.73442 4.58333 6.21767 4.58333 9.16659V12.4538L3.01858 14.0185C2.84625 14.1899 2.75 14.4228 2.75 14.6666V16.4999C2.75 17.0068 3.15975 17.4166 3.66667 17.4166H18.3333C18.8402 17.4166 19.25 17.0068 19.25 16.4999V14.6666C19.25 14.4228 19.1537 14.1899 18.9814 14.0185L17.4167 12.4538ZM17.4167 15.5833H4.58337V15.0461L6.14812 13.4813C6.32046 13.3099 6.41671 13.0771 6.41671 12.8333V9.16659C6.41671 6.63934 8.47279 4.58325 11 4.58325C13.5273 4.58325 15.5834 6.63934 15.5834 9.16659V12.8333C15.5834 13.0771 15.6796 13.3099 15.852 13.4813L17.4167 15.0461V15.5833ZM11 20.1666C12.2018 20.1666 13.2065 19.4021 13.5832 18.3333H8.41687C8.79362 19.4021 9.79829 20.1666 11 20.1666Z" fill="#555B6D"/>
</svg>
