<svg width="14" height="15" viewBox="0 0 14 15" fill="none" xmlns="http://www.w3.org/2000/svg">
<path fill-rule="evenodd" clip-rule="evenodd" d="M5.83317 10.6669C6.91 10.6669 7.89992 10.2912 8.68975 9.66813L11.2541 12.2691L12.0789 11.4325L9.51458 8.83151C10.1294 8.0298 10.4998 7.02574 10.4998 5.93353C10.4998 3.32369 8.40625 1.2002 5.83317 1.2002C3.26009 1.2002 1.1665 3.32369 1.1665 5.93353C1.1665 8.54337 3.26009 10.6669 5.83317 10.6669V10.6669ZM5.83398 2.38281C7.76423 2.38281 9.33398 3.97499 9.33398 5.93281C9.33398 7.89064 7.76423 9.48281 5.83398 9.48281C3.90373 9.48281 2.33398 7.89064 2.33398 5.93281C2.33398 3.97499 3.90373 2.38281 5.83398 2.38281V2.38281Z" fill="#74788D"/>
<path fill-rule="evenodd" clip-rule="evenodd" d="M6.65771 5.09839C6.8788 5.32322 7.00071 5.62023 7.00071 5.935H8.16738C8.16738 5.30488 7.92471 4.71084 7.48255 4.26177C6.59938 3.36717 5.06813 3.36717 4.18555 4.26177L5.00921 5.09957C5.45255 4.65109 6.21671 4.65227 6.65771 5.09839V5.09839Z" fill="#74788D"/>
</svg>
