<svg width="22" height="21" viewBox="0 0 22 21" fill="none" xmlns="http://www.w3.org/2000/svg">
<path fill-rule="evenodd" clip-rule="evenodd" d="M5.63129 16.0078C5.27935 16.2234 5.01494 16.5565 4.88476 16.9481C4.75458 17.3398 4.76702 17.7648 4.91987 18.1482C5.07272 18.5316 5.35615 18.8486 5.72008 19.0432C6.08402 19.2379 6.50504 19.2976 6.90876 19.212C7.31249 19.1263 7.67294 18.9006 7.92644 18.575C8.17993 18.2493 8.31016 17.8444 8.29411 17.432C8.27805 17.0196 8.11676 16.6262 7.83872 16.3212C7.56068 16.0161 7.18378 15.8192 6.77462 15.7652C6.75276 15.6869 6.73273 15.6081 6.71454 15.5289C6.63477 15.1685 6.57247 14.8045 6.52787 14.4381C6.47968 14.0677 6.45241 13.695 6.4462 13.3216C6.44499 13.219 6.44791 13.1165 6.45495 13.0142C6.67895 12.95 6.90412 12.8917 7.1287 12.8409C7.38595 12.7826 7.53879 13.0859 7.66187 13.3321L7.71204 13.4307H14.5656C14.6992 13.1775 15.002 12.7738 15.2954 12.8409C15.608 12.9121 15.9225 12.9967 16.234 13.0935L16.2322 13.0941C16.231 13.0929 16.231 13.0929 16.2322 13.0952C16.2345 13.1034 16.2474 13.1419 16.2602 13.2236C16.2748 13.3181 16.2847 13.4406 16.2894 13.5882C16.2975 13.8822 16.2806 14.2397 16.2462 14.6002C16.2112 14.9602 16.1593 15.3084 16.101 15.5832C16.0881 15.6444 16.0753 15.6998 16.0625 15.75H15.2954C15.1871 15.7501 15.0809 15.7803 14.9888 15.8372C14.8967 15.8942 14.8223 15.9757 14.7739 16.0726L14.1905 17.2393C14.1499 17.3202 14.1288 17.4095 14.1287 17.5V18.6667C14.1287 18.8214 14.1902 18.9697 14.2996 19.0791C14.409 19.1885 14.5573 19.25 14.712 19.25H15.8787V18.0833H15.2954V17.6377L15.6559 16.9167H17.2682L17.6287 17.6377V18.0833H17.0454V19.25H18.212C18.3667 19.25 18.5151 19.1885 18.6245 19.0791C18.7339 18.9697 18.7954 18.8214 18.7954 18.6667V17.5C18.7953 17.4095 18.7741 17.3202 18.7335 17.2393L18.1502 16.0726C18.1018 15.9757 18.0274 15.8942 17.9353 15.8372C17.8432 15.7803 17.737 15.7501 17.6287 15.75H17.2577C17.3201 15.4391 17.372 15.0763 17.407 14.7122C17.4455 14.3191 17.4654 13.9113 17.4555 13.5555L17.4549 13.5392C19.7812 14.5221 21.712 16.1385 21.712 17.8325V21H0.712036V17.8325C0.712036 16.0638 2.81787 14.3792 5.28012 13.4126C5.28654 13.7754 5.32095 14.1855 5.37054 14.5827C5.4242 15.0115 5.49712 15.4379 5.57762 15.7891C5.59512 15.8643 5.61262 15.9373 5.63129 16.0078ZM6.54537 18.0921C6.8592 18.0921 7.1287 17.8354 7.1287 17.5C7.1287 17.1652 6.8592 16.9079 6.54537 16.9079C6.23154 16.9079 5.96204 17.1646 5.96204 17.5C5.96204 17.8348 6.23154 18.0921 6.54537 18.0921ZM11.212 10.5C12.4497 10.5 13.6367 10.0083 14.5119 9.13317C15.387 8.258 15.8787 7.07101 15.8787 5.83333C15.8787 4.59566 15.387 3.40867 14.5119 2.5335C13.6367 1.65833 12.4497 1.16667 11.212 1.16667C9.97436 1.16667 8.78737 1.65833 7.9122 2.5335C7.03703 3.40867 6.54537 4.59566 6.54537 5.83333C6.54537 7.07101 7.03703 8.258 7.9122 9.13317C8.78737 10.0083 9.97436 10.5 11.212 10.5ZM11.212 11.6667C14.4338 11.6667 17.0454 9.05508 17.0454 5.83333C17.0454 2.61158 14.4338 0 11.212 0C7.99029 0 5.3787 2.61158 5.3787 5.83333C5.3787 9.05508 7.99029 11.6667 11.212 11.6667Z" fill="#556EE6"/>
</svg>
