<svg width="8" height="2" viewBox="0 0 8 2" fill="none" xmlns="http://www.w3.org/2000/svg">
<path d="M6 1C6 0.734783 6.10536 0.48043 6.29289 0.292893C6.48043 0.105357 6.73478 6.7317e-08 7 5.7114e-08C7.26522 4.6911e-08 7.51957 0.105357 7.70711 0.292893C7.89464 0.48043 8 0.734783 8 1C8 1.26522 7.89464 1.51957 7.70711 1.70711C7.51957 1.89464 7.26522 2 7 2C6.73478 2 6.48043 1.89464 6.29289 1.70711C6.10536 1.51957 6 1.26522 6 1ZM3 1C3 0.734784 3.10536 0.48043 3.29289 0.292894C3.48043 0.105357 3.73478 1.82728e-07 4 1.72525e-07C4.26522 1.62322e-07 4.51957 0.105357 4.70711 0.292894C4.89464 0.48043 5 0.734784 5 1C5 1.26522 4.89464 1.51957 4.70711 1.70711C4.51957 1.89464 4.26522 2 4 2C3.73478 2 3.48043 1.89464 3.29289 1.70711C3.10536 1.51957 3 1.26522 3 1ZM-4.96664e-08 1C-6.28388e-08 0.734784 0.105357 0.48043 0.292893 0.292894C0.480429 0.105357 0.734783 2.98139e-07 1 2.87936e-07C1.26522 2.77733e-07 1.51957 0.105357 1.70711 0.292894C1.89464 0.48043 2 0.734784 2 1C2 1.26522 1.89464 1.51957 1.70711 1.70711C1.51957 1.89464 1.26522 2 1 2C0.734783 2 0.48043 1.89464 0.292893 1.70711C0.105357 1.51957 -3.64941e-08 1.26522 -4.96664e-08 1Z" fill="black"/>
</svg>
