<svg width="24" height="24" viewBox="0 0 24 24" fill="none" xmlns="http://www.w3.org/2000/svg">
<path d="M8 22C6.61667 22 5.43767 21.5127 4.463 20.538C3.48767 19.5627 3 18.3833 3 17V8C2.45 8 1.97933 7.804 1.588 7.412C1.196 7.02067 1 6.55 1 6V4C1 3.45 1.196 2.979 1.588 2.587C1.97933 2.19567 2.45 2 3 2H13C13.55 2 14.021 2.19567 14.413 2.587C14.8043 2.979 15 3.45 15 4V6C15 6.55 14.8043 7.02067 14.413 7.412C14.021 7.804 13.55 8 13 8V11.025C12.3 11.475 11.7043 12.0373 11.213 12.712C10.721 13.3873 10.375 14.15 10.175 15H9C8.71667 15 8.47933 14.904 8.288 14.712C8.096 14.5207 8 14.2833 8 14C8 13.7167 8.096 13.479 8.288 13.287C8.47933 13.0957 8.71667 13 9 13H11V12H9C8.71667 12 8.47933 11.904 8.288 11.712C8.096 11.5207 8 11.2833 8 11C8 10.7167 8.096 10.479 8.288 10.287C8.47933 10.0957 8.71667 10 9 10H11V8H5V17C5 17.8333 5.29167 18.5417 5.875 19.125C6.45833 19.7083 7.16667 20 8 20C8.5 20 8.95833 19.8917 9.375 19.675C9.79167 19.4583 10.1417 19.1583 10.425 18.775C10.5583 19.1083 10.7083 19.425 10.875 19.725C11.0417 20.025 11.2417 20.3167 11.475 20.6C11.025 21.0333 10.5043 21.375 9.913 21.625C9.321 21.875 8.68333 22 8 22ZM10.175 18H9C8.71667 18 8.47933 17.904 8.288 17.712C8.096 17.5207 8 17.2833 8 17C8 16.7167 8.096 16.4793 8.288 16.288C8.47933 16.096 8.71667 16 9 16H10.025C9.99167 16.3333 9.98767 16.6667 10.013 17C10.0377 17.3333 10.0917 17.6667 10.175 18ZM3 6H13V4H3V6ZM3 6V4V6ZM16.5 19C17.2 19 17.7917 18.7583 18.275 18.275C18.7583 17.7917 19 17.2 19 16.5C19 15.8 18.7583 15.2083 18.275 14.725C17.7917 14.2417 17.2 14 16.5 14C15.8 14 15.2083 14.2417 14.725 14.725C14.2417 15.2083 14 15.8 14 16.5C14 17.2 14.2417 17.7917 14.725 18.275C15.2083 18.7583 15.8 19 16.5 19ZM16.5 21C15.25 21 14.1873 20.5627 13.312 19.688C12.4373 18.8127 12 17.75 12 16.5C12 15.25 12.4373 14.1873 13.312 13.312C14.1873 12.4373 15.25 12 16.5 12C17.75 12 18.8127 12.4373 19.688 13.312C20.5627 14.1873 21 15.25 21 16.5C21 16.9333 20.9417 17.35 20.825 17.75C20.7083 18.15 20.5333 18.5333 20.3 18.9L22.3 20.9C22.4833 21.0833 22.575 21.3167 22.575 21.6C22.575 21.8833 22.4833 22.1167 22.3 22.3C22.1167 22.4833 21.8833 22.575 21.6 22.575C21.3167 22.575 21.0833 22.4833 20.9 22.3L18.9 20.3C18.5333 20.5333 18.15 20.7083 17.75 20.825C17.35 20.9417 16.9333 21 16.5 21Z" fill="white"/>
</svg>
