<svg width="22" height="26" viewBox="0 0 22 26" fill="none" xmlns="http://www.w3.org/2000/svg">
<path d="M0.763672 20.35V16.92C0.763672 16.2258 0.934005 15.5876 1.27467 15.0053C1.61456 14.4239 2.06645 13.98 2.63034 13.6738C3.83589 13.0408 5.06089 12.5659 6.30534 12.2491C7.54978 11.933 8.81367 11.775 10.097 11.775C10.4859 11.775 10.8748 11.7901 11.2637 11.8203C11.6526 11.8514 12.0414 11.8975 12.4303 11.9588V14.4394C12.0414 14.3577 11.6526 14.3014 11.2637 14.2703C10.8748 14.2401 10.4859 14.225 10.097 14.225C9.00812 14.225 7.92895 14.3626 6.85951 14.6378C5.79006 14.9139 4.73034 15.3275 3.68034 15.8788C3.50534 15.9808 3.36456 16.1238 3.25801 16.3075C3.15067 16.4913 3.09701 16.6954 3.09701 16.92V17.9H12.4303V20.35H0.763672ZM3.09701 17.9H12.4303H3.09701ZM10.097 10.55C8.81367 10.55 7.71506 10.0702 6.80117 9.11063C5.88728 8.15104 5.43034 6.9975 5.43034 5.65C5.43034 4.3025 5.88728 3.14896 6.80117 2.18938C7.71506 1.22979 8.81367 0.75 10.097 0.75C11.3803 0.75 12.4789 1.22979 13.3928 2.18938C14.3067 3.14896 14.7637 4.3025 14.7637 5.65C14.7637 6.9975 14.3067 8.15104 13.3928 9.11063C12.4789 10.0702 11.3803 10.55 10.097 10.55ZM10.097 8.1C10.7387 8.1 11.2882 7.8599 11.7455 7.3797C12.2021 6.90032 12.4303 6.32375 12.4303 5.65C12.4303 4.97625 12.2021 4.39968 11.7455 3.9203C11.2882 3.4401 10.7387 3.2 10.097 3.2C9.45534 3.2 8.90623 3.4401 8.44967 3.9203C7.99234 4.39968 7.76367 4.97625 7.76367 5.65C7.76367 6.32375 7.99234 6.90032 8.44967 7.3797C8.90623 7.8599 9.45534 8.1 10.097 8.1ZM17.097 25.25V19.125H14.7637V11.775H21.7637L19.4303 16.675H21.7637L17.097 25.25Z" fill="#F1B44C"/>
</svg>
