<svg width="24" height="24" viewBox="0 0 24 24" fill="none" xmlns="http://www.w3.org/2000/svg">
<path d="M4 20V17.2C4 16.6333 4.146 16.1123 4.438 15.637C4.72933 15.1623 5.11667 14.8 5.6 14.55C6.63333 14.0333 7.68333 13.6457 8.75 13.387C9.81667 13.129 10.9 13 12 13C12.3333 13 12.6667 13.0123 13 13.037C13.3333 13.0623 13.6667 13.1 14 13.15V15.175C13.6667 15.1083 13.3333 15.0623 13 15.037C12.6667 15.0123 12.3333 15 12 15C11.0667 15 10.1417 15.1123 9.225 15.337C8.30833 15.5623 7.4 15.9 6.5 16.35C6.35 16.4333 6.22933 16.55 6.138 16.7C6.046 16.85 6 17.0167 6 17.2V18H14V20H4ZM6 18H14H6ZM12 12C10.9 12 9.95833 11.6083 9.175 10.825C8.39167 10.0417 8 9.1 8 8C8 6.9 8.39167 5.95833 9.175 5.175C9.95833 4.39167 10.9 4 12 4C13.1 4 14.0417 4.39167 14.825 5.175C15.6083 5.95833 16 6.9 16 8C16 9.1 15.6083 10.0417 14.825 10.825C14.0417 11.6083 13.1 12 12 12ZM12 10C12.55 10 13.021 9.804 13.413 9.412C13.8043 9.02067 14 8.55 14 8C14 7.45 13.8043 6.97933 13.413 6.588C13.021 6.196 12.55 6 12 6C11.45 6 10.9793 6.196 10.588 6.588C10.196 6.97933 10 7.45 10 8C10 8.55 10.196 9.02067 10.588 9.412C10.9793 9.804 11.45 10 12 10ZM18 24V19H16V13H22L20 17H22L18 24Z" fill="white"/>
</svg>
