<svg width="24" height="24" viewBox="0 0 24 24" fill="none" xmlns="http://www.w3.org/2000/svg">
<path d="M9.50001 10.5001H12C12.2652 10.5001 12.5196 10.3947 12.7071 10.2072C12.8947 10.0196 13 9.76528 13 9.50007C13 9.23485 12.8947 8.9805 12.7071 8.79296C12.5196 8.60543 12.2652 8.50007 12 8.50007H11V8.00007C11 7.73485 10.8947 7.4805 10.7071 7.29296C10.5196 7.10543 10.2652 7.00007 10 7.00007C9.73479 7.00007 9.48044 7.10543 9.2929 7.29296C9.10537 7.4805 9.00001 7.73485 9.00001 8.00007V8.55007C8.39243 8.67344 7.85237 9.01817 7.48466 9.51733C7.11696 10.0165 6.94785 10.6345 7.01015 11.2513C7.07246 11.8682 7.36174 12.4398 7.82184 12.8554C8.28194 13.2709 8.88003 13.5007 9.50001 13.5001H10.5C10.6326 13.5001 10.7598 13.5527 10.8536 13.6465C10.9473 13.7403 11 13.8675 11 14.0001C11 14.1327 10.9473 14.2599 10.8536 14.3536C10.7598 14.4474 10.6326 14.5001 10.5 14.5001H8.00001C7.73479 14.5001 7.48044 14.6054 7.2929 14.793C7.10537 14.9805 7.00001 15.2349 7.00001 15.5001C7.00001 15.7653 7.10537 16.0196 7.2929 16.2072C7.48044 16.3947 7.73479 16.5001 8.00001 16.5001H9.00001V17.0001C9.00001 17.2653 9.10537 17.5196 9.2929 17.7072C9.48044 17.8947 9.73479 18.0001 10 18.0001C10.2652 18.0001 10.5196 17.8947 10.7071 17.7072C10.8947 17.5196 11 17.2653 11 17.0001V16.4501C11.6076 16.3267 12.1476 15.982 12.5154 15.4828C12.8831 14.9836 13.0522 14.3657 12.9899 13.7488C12.9276 13.132 12.6383 12.5603 12.1782 12.1448C11.7181 11.7292 11.12 11.4994 10.5 11.5001H9.50001C9.3674 11.5001 9.24022 11.4474 9.14645 11.3536C9.05269 11.2599 9.00001 11.1327 9.00001 11.0001C9.00001 10.8675 9.05269 10.7403 9.14645 10.6465C9.24022 10.5527 9.3674 10.5001 9.50001 10.5001ZM21 12.0001H18V3.00007C18.0007 2.82386 17.9548 2.65059 17.867 2.49781C17.7792 2.34504 17.6526 2.21817 17.5 2.13007C17.348 2.0423 17.1755 1.99609 17 1.99609C16.8245 1.99609 16.652 2.0423 16.5 2.13007L13.5 3.85007L10.5 2.13007C10.348 2.0423 10.1755 1.99609 10 1.99609C9.82447 1.99609 9.65203 2.0423 9.50001 2.13007L6.50001 3.85007L3.50001 2.13007C3.34799 2.0423 3.17554 1.99609 3.00001 1.99609C2.82447 1.99609 2.65203 2.0423 2.50001 2.13007C2.3474 2.21817 2.22079 2.34504 2.13299 2.49781C2.04518 2.65059 1.99931 2.82386 2.00001 3.00007V19.0001C2.00001 19.7957 2.31608 20.5588 2.87869 21.1214C3.4413 21.684 4.20436 22.0001 5.00001 22.0001H19C19.7957 22.0001 20.5587 21.684 21.1213 21.1214C21.6839 20.5588 22 19.7957 22 19.0001V13.0001C22 12.7349 21.8947 12.4805 21.7071 12.293C21.5196 12.1054 21.2652 12.0001 21 12.0001ZM5.00001 20.0001C4.73479 20.0001 4.48044 19.8947 4.2929 19.7072C4.10536 19.5196 4.00001 19.2653 4.00001 19.0001V4.73007L6.00001 5.87007C6.15435 5.95068 6.32589 5.99278 6.50001 5.99278C6.67413 5.99278 6.84567 5.95068 7.00001 5.87007L10 4.15007L13 5.87007C13.1543 5.95068 13.3259 5.99278 13.5 5.99278C13.6741 5.99278 13.8457 5.95068 14 5.87007L16 4.73007V19.0001C16.0027 19.3412 16.0636 19.6794 16.18 20.0001H5.00001ZM20 19.0001C20 19.2653 19.8947 19.5196 19.7071 19.7072C19.5196 19.8947 19.2652 20.0001 19 20.0001C18.7348 20.0001 18.4804 19.8947 18.2929 19.7072C18.1054 19.5196 18 19.2653 18 19.0001V14.0001H20V19.0001Z" fill="white"/>
</svg>
